<svg width="76" height="43" viewBox="0 0 76 43" fill="none" xmlns="http://www.w3.org/2000/svg">
    <path fill-rule="evenodd" clip-rule="evenodd" d="M19.3042 54C16.9249 54 14.9783 53.9193 13.4642 53.7578C11.9502 53.5964 10.301 53.2735 8.51654 52.7892C6.67804 52.2511 5.19104 51.4843 4.0555 50.4888C2.91995 49.4933 1.97368 48.0538 1.21665 46.1704C0.405546 44.3408 0 42.1345 0 39.5516V14.4484C0 11.9731 0.378509 9.79373 1.13554 7.91031C1.89257 6.0269 2.86588 4.54709 4.0555 3.47085C5.08289 2.55605 6.48879 1.81615 8.27321 1.25112C10.0576 0.686096 11.842 0.322871 13.6265 0.161435C15.6813 0.0538111 17.5738 0 19.3042 0C21.7375 0 23.6841 0.0672639 25.1441 0.201794C26.6041 0.336324 28.2262 0.672643 30.0107 1.21076C31.9573 1.80269 33.4984 2.58295 34.6339 3.55157C35.7695 4.52018 36.7428 5.91927 37.5539 7.74888C38.365 9.57848 38.7705 11.8116 38.7705 14.4484V39.5516C38.7705 42.0269 38.3785 44.2063 37.5945 46.0897C36.8104 47.9731 35.8236 49.426 34.6339 50.4484C33.5525 51.3632 32.079 52.1166 30.2134 52.7085C28.3479 53.3004 26.577 53.6502 24.9007 53.7578C23.3867 53.9193 21.5212 54 19.3042 54ZM19.4664 46.4126C21.7375 46.4126 23.3597 46.2646 24.333 45.9686C25.3063 45.6726 25.9552 45.1211 26.2796 44.3139C26.6041 43.5067 26.7663 42.1884 26.7663 40.3587V13.6413C26.7663 11.8116 26.6041 10.4933 26.2796 9.6861C25.9552 8.87892 25.3063 8.32736 24.333 8.03139C23.3597 7.73542 21.7375 7.58744 19.4664 7.58744C17.1412 7.58744 15.4785 7.73542 14.4781 8.03139C13.4778 8.32736 12.8154 8.87892 12.4909 9.6861C12.1665 10.4933 12.0043 11.8116 12.0043 13.6413V40.3587C12.0043 42.1884 12.1665 43.5067 12.4909 44.3139C12.8154 45.1211 13.4778 45.6726 14.4781 45.9686C15.4785 46.2646 17.1412 46.4126 19.4664 46.4126ZM49.8015 21.0673L64.158 13.1569V53.1928H76V0.807175H66.429L49.8015 11.139V21.0673Z" fill="white"/>
</svg>
