<svg width="109" height="54" viewBox="0 0 109 54" fill="none" xmlns="http://www.w3.org/2000/svg">
    <path fill-rule="evenodd" clip-rule="evenodd" d="M24.8725 70C21.807 70 19.2988 69.8954 17.348 69.6861C15.3972 69.4768 13.2723 69.0583 10.9732 68.4305C8.60433 67.7329 6.68841 66.7389 5.22531 65.4484C3.76222 64.1579 2.54299 62.292 1.56759 59.8505C0.522526 57.4788 0 54.6189 0 51.2706V18.7294C0 15.5207 0.487691 12.6956 1.46309 10.2541C2.43848 7.81264 3.69255 5.89438 5.22531 4.49925C6.54906 3.3134 8.36049 2.35426 10.6596 1.62182C12.9588 0.889384 15.2579 0.418536 17.557 0.209268C20.2046 0.0697552 22.643 0 24.8725 0C28.0077 0 30.5158 0.087194 32.3969 0.261584C34.2781 0.435975 36.3682 0.871945 38.6673 1.56951C41.1755 2.33682 43.1611 3.34827 44.6242 4.60389C46.0873 5.8595 47.3413 7.67313 48.3864 10.0448C49.4315 12.4166 49.954 15.3114 49.954 18.7294V51.2706C49.954 54.4793 49.4489 57.3044 48.4386 59.7459C47.4284 62.1874 46.1569 64.0707 44.6242 65.3961C43.2307 66.582 41.3322 67.5585 38.9286 68.3259C36.5249 69.0932 34.2432 69.5466 32.0834 69.6861C30.1326 69.8954 27.729 70 24.8725 70ZM25.0815 60.1644C28.0077 60.1644 30.0978 59.9726 31.3519 59.5889C32.6059 59.2053 33.442 58.4903 33.86 57.4439C34.278 56.3976 34.4871 54.6886 34.4871 52.3169V17.6831C34.4871 15.3114 34.278 13.6024 33.86 12.5561C33.442 11.5097 32.6059 10.7947 31.3519 10.4111C30.0978 10.0274 28.0077 9.83558 25.0815 9.83558C22.0856 9.83558 19.9433 10.0274 18.6544 10.4111C17.3654 10.7947 16.512 11.5097 16.094 12.5561C15.6759 13.6024 15.4669 15.3114 15.4669 17.6831V52.3169C15.4669 54.6886 15.6759 56.3976 16.094 57.4439C16.512 58.4903 17.3654 59.2053 18.6544 59.5889C19.9433 59.9726 22.0856 60.1644 25.0815 60.1644ZM64.4803 43.6323C62.3902 46.4225 61.3452 49.701 61.3452 53.4679V68.9537H109V57.5486H76.3941V54.0957C76.3941 52.003 77.4217 50.1893 79.477 48.6547C81.5323 47.1201 84.3365 45.725 87.8897 44.4694C91.1643 43.423 94.3691 42.2372 97.5043 40.9118C100.849 39.5864 103.583 37.6159 105.708 35C107.833 32.3841 108.895 29.2975 108.895 25.7399V16.3229C108.895 10.4633 106.892 6.27804 102.886 3.76682C98.8803 1.25559 92.7667 0 84.5455 0C76.9514 0 69.6709 0.732429 62.7037 2.19731V13.707C70.5766 11.9631 76.9166 11.0912 81.7239 11.0912C85.6951 11.0912 88.6213 11.4748 90.5024 12.2422C92.2442 12.9397 93.1151 14.3697 93.1151 16.5321V25.2167C93.1151 27.0304 92.1397 28.5999 90.1889 29.9253C88.2381 31.2506 85.4861 32.5062 81.9329 33.6921C78.3797 34.8779 75.2793 36.0638 72.6318 37.2496C69.2876 38.7145 66.5705 40.842 64.4803 43.6323Z" fill="white"/>
</svg>
