<svg width="108" height="54" viewBox="0 0 108 54" fill="none" xmlns="http://www.w3.org/2000/svg">
    <path fill-rule="evenodd" clip-rule="evenodd" d="M24.9311 70C21.8584 70 19.3443 69.8954 17.3889 69.6861C15.4335 69.4768 13.3036 69.0583 10.999 68.4305C8.62462 67.7329 6.70418 66.7389 5.23763 65.4484C3.77109 64.1579 2.54899 62.292 1.57129 59.8505C0.523758 57.4788 0 54.6189 0 51.2706V18.7294C0 15.5207 0.488841 12.6956 1.46654 10.2541C2.44423 7.81264 3.70125 5.89438 5.23763 4.49925C6.56451 3.3134 8.3802 2.35426 10.6848 1.62182C12.9893 0.889384 15.2939 0.418536 17.5984 0.209268C20.2522 0.0697552 22.6964 0 24.9311 0C28.0737 0 30.5878 0.087194 32.4733 0.261584C34.3589 0.435975 36.4539 0.871945 38.7585 1.56951C41.2726 2.33682 43.2628 3.34827 44.7294 4.60389C46.1959 5.8595 47.453 7.67313 48.5005 10.0448C49.548 12.4166 50.0718 15.3114 50.0718 18.7294V51.2706C50.0718 54.4793 49.5655 57.3044 48.5529 59.7459C47.5402 62.1874 46.2658 64.0707 44.7294 65.3961C43.3327 66.582 41.4297 67.5585 39.0204 68.3259C36.611 69.0932 34.324 69.5466 32.1591 69.6861C30.2037 69.8954 27.7944 70 24.9311 70ZM25.1406 60.1644C28.0737 60.1644 30.1688 59.9726 31.4258 59.5889C32.6828 59.2053 33.5209 58.4903 33.9399 57.4439C34.3589 56.3976 34.5684 54.6886 34.5684 52.3169V17.6831C34.5684 15.3114 34.3589 13.6024 33.9399 12.5561C33.5209 11.5097 32.6828 10.7947 31.4258 10.4111C30.1688 10.0274 28.0737 9.83558 25.1406 9.83558C22.1377 9.83558 19.9903 10.0274 18.6984 10.4111C17.4064 10.7947 16.5509 11.5097 16.1319 12.5561C15.7129 13.6024 15.5034 15.3114 15.5034 17.6831V52.3169C15.5034 54.6886 15.7129 56.3976 16.1319 57.4439C16.5509 58.4903 17.4064 59.2053 18.6984 59.5889C19.9903 59.9726 22.1377 60.1644 25.1406 60.1644ZM60.3375 68.4305C69.6955 69.4768 77.3074 70 83.1736 70C91.7634 70 98.0485 68.7444 102.029 66.2332C106.01 63.722 108 59.5715 108 53.7818V42.6906C108 38.0867 104.927 34.7035 98.7818 32.5411C100.667 32.0528 102.221 31.0937 103.443 29.6637C104.665 28.2337 105.276 26.5072 105.276 24.4843V13.2885C105.276 8.3358 103.373 4.88292 99.5674 2.92975C95.7614 0.976572 89.5985 0 81.0786 0C77.1678 0 70.4637 0.313898 60.9661 0.941704V11.8236C69.2765 10.9865 75.4219 10.568 79.4025 10.568C82.1959 10.568 84.3084 10.7424 85.7401 11.0912C87.1717 11.44 88.1668 12.0154 88.7255 12.8176C89.2842 13.6198 89.5635 14.7534 89.5635 16.2182V22.8102C89.5635 26.7863 86.84 28.7743 81.3928 28.7743H69.032V39.2377H81.3928C88.4462 39.2377 91.9728 40.8769 91.9728 44.1555V52.003C91.9728 54.7235 91.1872 56.572 89.6159 57.5486C88.0446 58.5252 85.2338 59.0135 81.1833 59.0135C79.0184 59.0135 76.8885 58.9088 74.7934 58.6996C72.0698 58.4205 70.289 58.2113 69.451 58.0718L65.8894 57.4439C65.7498 57.3742 65.0165 57.1998 63.6896 56.9208L60.3375 56.293V68.4305Z" fill="white"/>
</svg>
