<svg width="111" height="54" viewBox="0 0 111 54" fill="none" xmlns="http://www.w3.org/2000/svg">
    <path fill-rule="evenodd" clip-rule="evenodd" d="M17.4324 69.6861C19.3926 69.8954 21.9129 70 24.9934 70C27.8638 70 30.2791 69.8954 32.2394 69.6861C34.4097 69.5466 36.7024 69.0932 39.1178 68.3259C41.5331 67.5585 43.4409 66.582 44.8411 65.3961C46.3813 64.0707 47.6589 62.1874 48.6741 59.7459C49.6892 57.3044 50.1968 54.4793 50.1968 51.2706V18.7294C50.1968 15.3114 49.6717 12.4166 48.6216 10.0448C47.5714 7.67313 46.3113 5.8595 44.8411 4.60389C43.3709 3.34827 41.3756 2.33682 38.8553 1.56951C36.5449 0.871945 34.4447 0.435975 32.5544 0.261584C30.6641 0.087194 28.1438 0 24.9934 0C22.7531 0 20.3028 0.0697552 17.6424 0.209268C15.3321 0.418536 13.0218 0.889384 10.7114 1.62182C8.40112 2.35426 6.5809 3.3134 5.25071 4.49925C3.71049 5.89438 2.45034 7.81264 1.4702 10.2541C0.490061 12.6956 0 15.5207 0 18.7294V51.2706C0 54.6189 0.525066 57.4788 1.57521 59.8505C2.55535 62.292 3.7805 64.1579 5.25071 65.4484C6.72092 66.7389 8.64616 67.7329 11.0265 68.4305C13.3368 69.0583 15.4721 69.4768 17.4324 69.6861ZM31.5043 59.5889C30.2441 59.9726 28.1438 60.1644 25.2034 60.1644C22.193 60.1644 20.0402 59.9726 18.745 59.5889C17.4499 59.2053 16.5922 58.4903 16.1722 57.4439C15.7521 56.3976 15.5421 54.6886 15.5421 52.3169V17.6831C15.5421 15.3114 15.7521 13.6024 16.1722 12.5561C16.5922 11.5097 17.4499 10.7947 18.745 10.4111C20.0402 10.0274 22.193 9.83558 25.2034 9.83558C28.1438 9.83558 30.2441 10.0274 31.5043 10.4111C32.7644 10.7947 33.6045 11.5097 34.0246 12.5561C34.4447 13.6024 34.6547 15.3114 34.6547 17.6831V52.3169C34.6547 54.6886 34.4447 56.3976 34.0246 57.4439C33.6045 58.4903 32.7644 59.2053 31.5043 59.5889ZM89.7871 55.2466H58.2829V43.2138L86.3217 1.04634H103.649V44.2601H111V55.2466H103.649V68.9537H89.7871V55.2466ZM89.7871 15.4858V44.2601H71.4097L89.7871 15.4858Z" fill="white"/>
</svg>
