<svg width="108" height="54" viewBox="0 0 108 54" fill="none" xmlns="http://www.w3.org/2000/svg">
    <path fill-rule="evenodd" clip-rule="evenodd" d="M24.907 70C21.8372 70 19.3256 69.8954 17.3721 69.6861C15.4186 69.4768 13.2907 69.0583 10.9884 68.4305C8.61627 67.7329 6.69768 66.7389 5.23256 65.4484C3.76743 64.1579 2.54652 62.292 1.56977 59.8505C0.523251 57.4788 0 54.6189 0 51.2706V18.7294C0 15.5207 0.488367 12.6956 1.46512 10.2541C2.44187 7.81264 3.69767 5.89438 5.23256 4.49925C6.55815 3.3134 8.37208 2.35426 10.6744 1.62182C12.9768 0.889384 15.2791 0.418536 17.5814 0.209268C20.2326 0.0697552 22.6744 0 24.907 0C28.0465 0 30.5581 0.087194 32.4419 0.261584C34.3256 0.435975 36.4186 0.871945 38.7209 1.56951C41.2326 2.33682 43.2209 3.34827 44.686 4.60389C46.1512 5.8595 47.407 7.67313 48.4535 10.0448C49.5 12.4166 50.0233 15.3114 50.0233 18.7294V51.2706C50.0233 54.4793 49.5174 57.3044 48.5058 59.7459C47.4942 62.1874 46.2209 64.0707 44.686 65.3961C43.2907 66.582 41.3895 67.5585 38.9826 68.3259C36.5756 69.0932 34.2907 69.5466 32.1279 69.6861C30.1744 69.8954 27.7675 70 24.907 70ZM25.1163 60.1644C28.0465 60.1644 30.1395 59.9726 31.3953 59.5889C32.6512 59.2053 33.4884 58.4903 33.907 57.4439C34.3256 56.3976 34.5349 54.6886 34.5349 52.3169V17.6831C34.5349 15.3114 34.3256 13.6024 33.907 12.5561C33.4884 11.5097 32.6512 10.7947 31.3953 10.4111C30.1395 10.0274 28.0465 9.83558 25.1163 9.83558C22.1163 9.83558 19.9709 10.0274 18.6802 10.4111C17.3895 10.7947 16.5349 11.5097 16.1163 12.5561C15.6977 13.6024 15.4884 15.3114 15.4884 17.6831V52.3169C15.4884 54.6886 15.6977 56.3976 16.1163 57.4439C16.5349 58.4903 17.3895 59.2053 18.6802 59.5889C19.9709 59.9726 22.1163 60.1644 25.1163 60.1644ZM61.7442 68.849C71.3721 69.6163 78.593 70 83.407 70C85.3605 70 87.593 69.9302 90.1047 69.7907C92.2674 69.5815 94.5174 69.1629 96.8547 68.5351C99.1919 67.9073 101.058 67.0703 102.453 66.0239C104.058 64.9078 105.384 63.286 106.43 61.1584C107.477 59.0309 108 56.6069 108 53.8864V39.6562C108 37.145 107.372 34.9477 106.116 33.0643C104.86 31.1809 103.186 29.7858 101.093 28.8789C97.2558 27.3443 93.314 26.577 89.2674 26.577H78.593V12.7653H106.221V1.04634H63.314V37.7728H84.2442C87.1047 37.7728 89.1628 38.1739 90.4186 38.9761C91.6744 39.7783 92.3023 41.1211 92.3023 43.0045V53.154C92.3023 55.0374 91.4302 56.415 89.6861 57.287C87.9418 58.1589 85.1512 58.5949 81.3139 58.5949C76.9186 58.5949 70.3954 57.7927 61.7442 56.1883V68.849Z" fill="white"/>
</svg>
