<svg width="30" height="19" viewBox="0 0 30 19" fill="none" xmlns="http://www.w3.org/2000/svg">
    <path d="M28.7955 0H1.2032C0.539984 0 0 0.473594 0 1.0524V1.9423C0 2.5211 0.539805 3 1.2032 3H28.7955C29.4591 3 30 2.5211 30 1.9423V1.0524C30 0.473594 29.4591 0 28.7955 0Z" fill="#003764"/>
    <path d="M28.7955 8H1.2032C0.539984 8 0 8.47359 0 9.0524V9.9423C0 10.5211 0.539805 11 1.2032 11H28.7955C29.4591 11 30 10.5211 30 9.9423V9.0524C30 8.47359 29.4591 8 28.7955 8Z" fill="#003764"/>
    <path d="M28.7955 16H15.2032C14.54 16 14 16.4736 14 17.0524V17.9423C14 18.5211 14.5398 19 15.2032 19H28.7955C29.4591 19 30 18.5211 30 17.9423V17.0524C30 16.4736 29.4591 16 28.7955 16Z" fill="#C32032"/>
</svg>
