<svg width="23" height="23" viewBox="0 0 23 23" fill="none" xmlns="http://www.w3.org/2000/svg">
    <path d="M22.1227 0.911545C22.532 1.32082 22.485 2.03753 22.016 2.50649L13.3209 11.2016L22.0152 19.8959C22.4531 20.3338 22.5237 20.9879 22.1985 21.4059L22.1227 21.4917L21.4934 22.121C21.0841 22.5303 20.3631 22.4864 19.8938 22.0172L11.1996 13.323L2.50531 22.0172C2.06737 22.4552 1.41329 22.5258 0.99527 22.2005L0.909473 22.1247L0.280218 21.4955C-0.129057 21.0862 -0.0852328 20.3651 0.383987 19.8959L9.07825 11.2016L0.383102 2.50649C-0.0547188 2.06867 -0.121422 1.41199 0.204386 0.993628L0.280218 0.907792L0.909473 0.278537C1.31875 -0.130738 2.03546 -0.0837929 2.50442 0.385174L11.1996 9.08032L19.8947 0.385174C20.3325 -0.0526464 20.9892 -0.119349 21.4076 0.206459L21.4934 0.28229L22.1227 0.911545Z" fill="#003764"/>
</svg>
