<svg width="78" height="62" viewBox="0 0 78 62" fill="none" xmlns="http://www.w3.org/2000/svg">
    <path fill-rule="evenodd" clip-rule="evenodd" d="M2.31848 52.9441H0L0.290283 49.655H9.13484L8.83436 52.9441H6.51587L5.78638 61.0387H1.589L2.31848 52.9441Z" fill="#003764"/>
    <path fill-rule="evenodd" clip-rule="evenodd" d="M9.81153 49.655H17.6737L17.368 53.0355H13.7031L13.6257 53.8324H17.1287L16.8547 56.8688H13.3584L13.2813 57.6686H17.1147L16.8105 61.0391H8.79025L9.81153 49.655Z" fill="#003764"/>
    <path fill-rule="evenodd" clip-rule="evenodd" d="M23.3933 49.655C26.5815 49.655 27.9686 51.0349 27.7471 53.5234L27.6591 54.4748C27.5449 55.7755 27.06 56.7277 26.174 57.3402L27.5396 61.0391H23.0803L22.3051 58.1561H22.11L21.8466 61.0391H17.6598L18.678 49.655H23.3933ZM22.592 52.7739L22.3739 55.2388H22.8906C23.2632 55.2388 23.4197 54.9936 23.4443 54.7245L23.5762 53.2699C23.5936 53.018 23.4775 52.7739 23.1154 52.7739H22.592Z" fill="#003764"/>
    <path fill-rule="evenodd" clip-rule="evenodd" d="M36.8572 55.5834L35.6004 59.4581H33.0642L32.5192 55.6502L32.0323 61.0388H28.3184L29.3397 49.6551H34.4332L34.7727 54.5906L36.0011 49.6551H41.0844L40.0616 61.0388H36.3651L36.8572 55.5834Z" fill="#003764"/>
    <path fill-rule="evenodd" clip-rule="evenodd" d="M45.3099 61.0389H41.1194L42.1425 49.6548H46.3418L45.3099 61.0389Z" fill="#003764"/>
    <path fill-rule="evenodd" clip-rule="evenodd" d="M50.8027 56.3399L50.3828 61.0387H46.368L47.3874 49.6551H51.4075L52.6975 54.3546L53.1265 49.6551H57.1444L56.1144 61.0387H52.1033L50.8027 56.3399Z" fill="#003764"/>
    <path fill-rule="evenodd" clip-rule="evenodd" d="M63.3141 61.0389L63.2404 59.2387H61.4964L61.1082 61.0389H56.6224L60.2839 49.6548H66.1984L67.7893 61.0389H63.3141ZM62.21 56.1964H63.0733L62.9554 52.724L62.21 56.1964Z" fill="#003764"/>
    <path fill-rule="evenodd" clip-rule="evenodd" d="M72.8003 57.5681H76.1098L75.7954 61.0389H68.2986L69.3199 49.6549H73.5173L72.8003 57.5681Z" fill="#003764"/>
    <path fill-rule="evenodd" clip-rule="evenodd" d="M11.4866 22.1642L10.7605 30.1346H2.06528L4.77383 0H16.2219C23.4355 0 27.3603 3.40216 26.782 9.74737L26.5114 12.7061C25.9543 19.0715 21.4579 22.1642 14.2443 22.1642H11.4866ZM12.8787 6.60836L12.0967 15.5346H14.741C17.1815 15.5346 17.7474 13.7542 17.9337 11.6166L18.0569 10.0113C18.2538 8.08045 17.7617 6.60836 15.5468 6.60836H12.8787Z" fill="#003764"/>
    <path fill-rule="evenodd" clip-rule="evenodd" d="M52.4058 30.1346L55.1124 0H66.7169C72.992 0 75.9606 2.82474 76.2294 7.3011C76.4509 10.9257 74.804 13.3298 71.9337 14.7552C74.2382 15.8216 75.8242 18.026 75.9818 20.6085C76.3386 26.5066 72.122 30.1346 64.033 30.1346H52.4058ZM64.4461 17.646H61.5984L61.0659 23.6565H63.9555C66.4656 23.6565 67.7662 22.5849 67.6188 20.0964C67.5133 18.3832 66.3707 17.646 64.4461 17.646ZM68.0036 8.85008C67.9246 7.51274 67.1758 6.62329 65.583 6.62329H62.6284L62.1098 12.1421H65.179C67.1951 12.1421 68.1177 10.7193 68.0036 8.85008Z" fill="#003764"/>
    <path fill-rule="evenodd" clip-rule="evenodd" d="M37.4723 5.37309C42.8036 5.37309 46.7511 8.45761 47.1926 12.9437C47.5562 16.6176 45.5877 19.3393 40.8929 21.7012L42.8388 24.321L44.1518 26.0954L46.8657 29.7533L48.8633 32.4466L75.0413 32.441L74.4743 38.731L53.4885 38.7359H46.832L45.542 38.7426H45.1799L43.2043 35.9376C41.1039 37.7688 38.7018 38.6739 35.6444 38.7437L1.29388 38.7515L1.85971 32.4582C8.9592 32.4512 22.7406 32.4471 24.3688 32.4467L24.5271 32.4466C24.0909 31.49 23.7904 30.4412 23.6744 29.28C23.2333 24.7447 25.8205 21.3884 31.3484 19.2094C31.0657 18.8104 30.8211 18.4368 30.5909 18.0889L30.4931 17.9331C29.5004 16.3372 29.0819 15.1556 28.9354 13.6297C28.4588 8.83273 32.0446 5.37906 37.4723 5.37309ZM35.1364 24.3307C33.2609 25.2407 30.7633 26.6926 31.0006 29.1426C31.1817 30.9578 32.6898 32.3067 34.6073 32.428C34.667 32.428 34.718 32.428 34.7724 32.4254C34.8175 32.4252 34.8625 32.4251 34.9058 32.4251L35.082 32.425C35.7691 32.3996 36.451 32.2376 37.1068 31.936C37.1401 31.9215 37.1737 31.9077 37.2051 31.889C37.9346 31.5434 38.6308 31.0287 39.2828 30.365L35.1364 24.3307ZM38.1946 10.4582C36.5058 10.4582 35.3912 11.6321 35.5564 13.3128C35.6917 14.7181 36.685 15.9842 37.5271 17.1226C40.0036 15.8535 41.2286 14.396 41.0706 12.8123C40.9349 11.4499 39.6978 10.4582 38.1946 10.4582Z" fill="#C32032"/>
    <path fill-rule="evenodd" clip-rule="evenodd" d="M74.2662 41.0741L73.7038 47.3178L0.522217 47.3432L1.08275 41.0976L74.2662 41.0741Z" fill="#C32032"/>
    <path fill-rule="evenodd" clip-rule="evenodd" d="M50.0522 30.138L50.5057 25.1033L46.3242 25.1055L50.0522 30.138Z" fill="#C32032"/>
</svg>
