<svg width="119" height="107" viewBox="0 0 119 107" fill="none" xmlns="http://www.w3.org/2000/svg">
    <path fill-rule="evenodd" clip-rule="evenodd" d="M3.59211 82.4069H0L0.449745 77.311H14.1529L13.6874 82.4069H10.0953L8.96504 94.9482H2.46189L3.59211 82.4069Z" fill="#003764"/>
    <path fill-rule="evenodd" clip-rule="evenodd" d="M15.2013 77.311H27.3825L26.9088 82.5486H21.2307L21.1107 83.7832H26.5381L26.1135 88.4876H20.6966L20.5772 89.7268H26.5164L26.045 94.9487H13.619L15.2013 77.311Z" fill="#003764"/>
    <path fill-rule="evenodd" clip-rule="evenodd" d="M36.244 77.311C41.1835 77.311 43.3327 79.449 42.9895 83.3044L42.8531 84.7784C42.6762 86.7938 41.9249 88.269 40.5523 89.2179L42.668 94.9487H35.7591L34.558 90.4821H34.2558L33.8477 94.9487H27.3609L28.9385 77.311H36.244ZM35.0025 82.1432L34.6646 85.9622H35.4651C36.0425 85.9622 36.2849 85.5823 36.323 85.1653L36.5274 82.9117C36.5543 82.5214 36.3745 82.1432 35.8135 82.1432H35.0025Z" fill="#003764"/>
    <path fill-rule="evenodd" clip-rule="evenodd" d="M57.1041 86.4959L55.1569 92.4991H51.2275L50.3831 86.5995L49.6288 94.9482H43.8746L45.4569 77.311H53.3486L53.8744 84.9577L55.7777 77.311H63.6535L62.0688 94.9482H56.3416L57.1041 86.4959Z" fill="#003764"/>
    <path fill-rule="evenodd" clip-rule="evenodd" d="M70.2002 94.9483H63.7076L65.2928 77.3105H71.7989L70.2002 94.9483Z" fill="#003764"/>
    <path fill-rule="evenodd" clip-rule="evenodd" d="M78.7104 87.6681L78.0598 94.9482H71.8395L73.4189 77.311H79.6474L81.646 84.5922L82.3107 77.311H88.5357L86.9399 94.9482H80.7255L78.7104 87.6681Z" fill="#003764"/>
    <path fill-rule="evenodd" clip-rule="evenodd" d="M98.0946 94.9483L97.9804 92.1592H95.2784L94.677 94.9483H87.727L93.3998 77.3105H102.563L105.028 94.9483H98.0946ZM96.384 87.4456H97.7215L97.5388 82.0658L96.384 87.4456Z" fill="#003764"/>
    <path fill-rule="evenodd" clip-rule="evenodd" d="M112.792 89.5708H117.919L117.432 94.9483H105.817L107.4 77.3105H113.903L112.792 89.5708Z" fill="#003764"/>
    <path fill-rule="evenodd" clip-rule="evenodd" d="M17.7966 34.7182L16.6717 47.0669H3.1998L7.39625 0.378418H25.1331C36.3094 0.378418 42.3903 5.64949 41.4943 15.4803L41.075 20.0644C40.2118 29.9265 33.2455 34.7182 22.0692 34.7182H17.7966ZM19.9534 10.617L18.7418 24.4467H22.8387C26.6199 24.4467 27.4966 21.6882 27.7853 18.3764L27.9762 15.8892C28.2813 12.8977 27.5188 10.617 24.0872 10.617H19.9534Z" fill="#003764"/>
    <path fill-rule="evenodd" clip-rule="evenodd" d="M81.194 47.0669L85.3875 0.378418H103.367C113.089 0.378418 117.688 4.75488 118.105 11.6903C118.448 17.306 115.896 21.0307 111.449 23.2392C115.02 24.8914 117.477 28.3067 117.721 32.3079C118.274 41.4459 111.741 47.0669 99.2084 47.0669H81.194ZM99.8484 27.718H95.4365L94.6114 37.0302H99.0883C102.977 37.0302 104.992 35.3699 104.764 31.5145C104.601 28.8601 102.83 27.718 99.8484 27.718ZM105.36 14.0901C105.238 12.0182 104.078 10.6401 101.61 10.6401H97.0323L96.2288 19.1906H100.984C104.108 19.1906 105.537 16.9862 105.36 14.0901Z" fill="#003764"/>
    <path fill-rule="evenodd" clip-rule="evenodd" d="M47.9239 99.6814H44.8278L44.6884 101.124L47.3928 101.117L47.2961 102.183L44.5936 102.191L44.3757 104.714H42.9978L43.5477 98.548L48.0164 98.5439L47.9239 99.6814Z" fill="#C32032"/>
    <path fill-rule="evenodd" clip-rule="evenodd" d="M51.8154 101.311C51.6029 101.256 51.4699 101.239 51.3147 101.239C50.3667 101.239 50.0756 101.951 50.0047 102.728L49.8302 104.714H48.5911L48.994 100.245L50.1681 100.242L50.0809 101.067C50.3912 100.517 50.7889 100.12 51.5051 100.12C51.6573 100.12 51.7258 100.131 51.9162 100.165L51.8154 101.311Z" fill="#C32032"/>
    <path fill-rule="evenodd" clip-rule="evenodd" d="M55.7152 102.037L55.6964 101.903C55.6226 101.333 55.2496 100.989 54.6939 100.989C54.103 100.989 53.7001 101.376 53.6076 102.037H55.7152ZM54.7214 104.855C53.4032 104.855 52.5535 104.156 52.393 102.859C52.1939 101.266 53.128 100.12 54.623 100.12C55.8651 100.12 56.7417 100.864 56.8969 102.072C56.9274 102.326 56.9215 102.449 56.9104 102.779H53.5748C53.5801 102.873 53.583 102.917 53.5935 102.991C53.6784 103.619 54.0843 103.993 54.6886 103.993C55.1542 103.993 55.4429 103.784 55.5711 103.351H56.7939C56.6141 104.398 55.7995 104.855 54.7214 104.855Z" fill="#C32032"/>
    <path fill-rule="evenodd" clip-rule="evenodd" d="M61.1944 102.032L61.1751 101.9C61.1019 101.331 60.7288 100.982 60.1731 100.982C59.5904 100.982 59.1764 101.376 59.0839 102.032H61.1944ZM60.1936 104.855C58.8771 104.855 58.0356 104.156 57.8693 102.858C57.6731 101.266 58.6072 100.12 60.097 100.12C61.3443 100.12 62.2209 100.864 62.3709 102.068C62.4019 102.326 62.4019 102.445 62.3925 102.774H59.0569C59.0569 102.873 59.0651 102.917 59.0757 102.991C59.1518 103.62 59.5605 103.992 60.1625 103.992C60.6281 103.992 60.9191 103.785 61.0503 103.351H62.2725C62.0933 104.395 61.2705 104.855 60.1936 104.855Z" fill="#C32032"/>
    <path fill-rule="evenodd" clip-rule="evenodd" d="M64.7564 102.936C64.8296 103.534 65.2383 103.896 65.7964 103.896C66.5483 103.896 67.0004 103.12 66.8669 102.079C66.7826 101.447 66.4107 101.088 65.8128 101.088C64.8928 101.088 64.6639 102.204 64.7564 102.936ZM64.8706 100.793C65.1839 100.358 65.6389 100.124 66.2104 100.12C67.2235 100.12 67.9696 100.849 68.1142 102.001C68.2829 103.378 67.6815 104.838 66.1454 104.838C65.4755 104.838 64.9309 104.551 64.6363 104.073L64.4407 106.296H63.2016L63.7351 100.236H64.9227L64.8706 100.793Z" fill="#C32032"/>
    <path fill-rule="evenodd" clip-rule="evenodd" d="M70.3799 102.914C70.4642 103.568 70.8484 103.942 71.4393 103.942C72.3868 103.942 72.6105 102.774 72.515 102.009C72.433 101.38 72.0518 101.002 71.4826 101.002C70.7342 101.002 70.2493 101.847 70.3799 102.914ZM73.7565 102.047C73.9527 103.593 73.1059 104.847 71.458 104.847C70.1784 104.847 69.3071 104.138 69.1437 102.887C68.9446 101.266 69.895 100.105 71.4229 100.105C72.7381 100.105 73.6042 100.824 73.7565 102.047Z" fill="#C32032"/>
    <path fill-rule="evenodd" clip-rule="evenodd" d="M78.0677 101.297C77.8581 101.244 77.7246 101.225 77.5653 101.225C76.6219 101.225 76.3332 101.936 76.2623 102.72L76.0825 104.701H74.8463L75.2492 100.236H76.428L76.3384 101.051C76.6435 100.512 77.0494 100.113 77.7603 100.113C77.9125 100.113 77.9863 100.12 78.1714 100.157L78.0677 101.297Z" fill="#C32032"/>
    <path fill-rule="evenodd" clip-rule="evenodd" d="M81.4526 101.071H80.5514L80.3418 103.264C80.3359 103.377 80.3336 103.453 80.347 103.525C80.3634 103.714 80.5186 103.806 80.7991 103.806C80.976 103.806 81.0439 103.798 81.3004 103.774L81.2073 104.692C80.9244 104.744 80.8126 104.755 80.4366 104.755C79.8375 104.755 79.1705 104.609 79.078 103.88C79.0423 103.62 79.0997 103.326 79.1161 103.076L79.2959 101.071H78.5223L78.6095 100.236H79.3749L79.5137 98.8867H80.7499L80.6275 100.236L81.537 100.228L81.4526 101.071Z" fill="#C32032"/>
    <path fill-rule="evenodd" clip-rule="evenodd" d="M86.4444 102.908C86.5264 103.567 86.9182 103.934 87.5091 103.934C88.4542 103.934 88.6773 102.772 88.5766 102.002C88.4976 101.371 88.1193 100.999 87.55 100.999C86.8011 100.999 86.3027 101.838 86.4444 102.908ZM89.8187 102.037C90.0201 103.592 89.1757 104.838 87.5225 104.838C86.24 104.839 85.3716 104.137 85.2106 102.887C85.0038 101.258 85.9595 100.1 87.4903 100.1C88.8056 100.1 89.6635 100.821 89.8187 102.037Z" fill="#C32032"/>
    <path fill-rule="evenodd" clip-rule="evenodd" d="M93.5997 101.076H92.7284L92.4028 104.697H91.1584L91.4799 101.076H90.7309L90.8181 100.228H91.5589L91.5806 100.047C91.6866 99.1001 91.8529 98.4976 93.0317 98.4976C93.3286 98.4976 93.6038 98.523 93.9007 98.5438L93.8299 99.4326C93.6852 99.4141 93.5359 99.4026 93.3971 99.4026C92.907 99.4026 92.8549 99.6564 92.8004 100.057L92.7817 100.227H93.6747L93.5997 101.076Z" fill="#C32032"/>
    <path fill-rule="evenodd" clip-rule="evenodd" d="M98.9986 101.311H100.292C100.997 101.311 101.692 101.192 101.569 100.326C101.49 99.6623 100.959 99.5953 100.395 99.5953H99.1485L98.9986 101.311ZM100.502 98.5283C100.997 98.5283 101.305 98.5549 101.605 98.6156C102.348 98.777 102.822 99.3206 102.929 100.105C103.045 101.002 102.566 101.668 101.719 101.811C102.19 101.999 102.422 102.311 102.492 102.847C102.546 103.283 102.558 103.711 102.609 104.138C102.648 104.416 102.675 104.54 102.768 104.694H101.406C101.349 104.574 101.316 104.457 101.289 104.261C101.243 103.849 101.254 103.447 101.199 103.04C101.117 102.36 100.728 102.28 100.096 102.28H98.9084L98.6988 104.694H97.3431L97.8795 98.5283H100.502Z" fill="#C32032"/>
    <path fill-rule="evenodd" clip-rule="evenodd" d="M105.769 99.5403H104.538L104.619 98.5283H105.864L105.769 99.5403ZM105.314 104.692H104.067L104.463 100.224H105.706L105.314 104.692Z" fill="#C32032"/>
    <path fill-rule="evenodd" clip-rule="evenodd" d="M109.094 101.018C108.225 101.018 107.942 101.989 108.034 102.724C108.108 103.337 108.486 103.697 109.029 103.697C109.755 103.697 110.227 102.934 110.107 101.971C110.031 101.376 109.655 101.018 109.094 101.018ZM111.106 104.465C110.968 106.015 110.087 106.359 108.919 106.359C107.691 106.359 106.877 105.852 106.768 105.003L106.763 104.927H108.007C108.089 105.358 108.391 105.566 108.912 105.566C109.742 105.566 109.84 105.046 109.916 104.389L109.97 103.973C109.692 104.383 109.301 104.559 108.737 104.559C107.727 104.559 106.956 103.849 106.823 102.781C106.656 101.459 107.288 100.104 108.767 100.104C109.434 100.104 109.927 100.349 110.257 100.917L110.3 100.223H111.493L111.106 104.465Z" fill="#C32032"/>
    <path fill-rule="evenodd" clip-rule="evenodd" d="M114.78 102.744C114.216 102.812 113.647 102.881 113.723 103.466C113.767 103.822 114.059 104.041 114.488 104.041C115.137 104.041 115.458 103.612 115.529 102.991L115.578 102.539C115.374 102.719 115.049 102.723 114.78 102.744ZM114.826 100.1C115.986 100.095 116.741 100.515 116.831 101.207C116.855 101.417 116.852 101.665 116.823 102.018L116.662 103.635C116.626 103.978 116.626 104.168 116.648 104.368C116.667 104.506 116.675 104.557 116.727 104.69H115.496C115.477 104.61 115.475 104.595 115.472 104.525C115.458 104.423 115.443 104.368 115.453 104.249C115.145 104.626 114.679 104.827 114.094 104.827C113.198 104.828 112.577 104.348 112.484 103.593C112.34 102.466 113.342 102.142 114.458 102.054C115.24 101.992 115.741 102.011 115.662 101.405C115.63 101.091 115.33 100.921 114.826 100.921C114.325 100.921 114.069 101.112 113.992 101.572H112.822C112.896 100.413 113.759 100.1 114.826 100.1Z" fill="#C32032"/>
    <path fill-rule="evenodd" clip-rule="evenodd" d="M58.0571 8.70312C66.3171 8.70312 72.4331 13.4821 73.1171 20.4325C73.6805 26.1246 70.6306 30.3414 63.3568 34.0008L66.3715 38.0598L68.4059 40.809L72.6106 46.4762L75.7055 50.6491L116.264 50.6404L115.386 60.3857L82.8715 60.3932H72.5584L70.5598 60.4036H69.9988L66.9378 56.0578C63.6836 58.8948 59.9621 60.2972 55.2251 60.4053L2.00467 60.4175L2.88132 50.667C13.8808 50.6561 35.2327 50.6499 37.7554 50.6491L38.0007 50.6491C37.3249 49.1669 36.8593 47.5419 36.6796 45.7429C35.9961 38.7161 40.0046 33.5162 48.5691 30.1402C48.1311 29.522 47.7522 28.9431 47.3955 28.4042L47.2439 28.1628C45.706 25.6901 45.0575 23.8595 44.8306 21.4954C44.0921 14.0633 49.6478 8.71238 58.0571 8.70312ZM54.438 38.0748C51.5323 39.4847 47.6626 41.7342 48.0303 45.5301C48.3109 48.3423 50.6474 50.4322 53.6182 50.6202C53.7107 50.6202 53.7898 50.6202 53.8741 50.6161C53.9439 50.6159 54.0137 50.6157 54.0807 50.6157L54.3537 50.6155C55.4183 50.5762 56.4748 50.3252 57.4908 49.858C57.5423 49.8354 57.5945 49.814 57.6431 49.7851C58.7733 49.2496 59.852 48.4522 60.8621 47.424L54.438 38.0748ZM59.1762 16.5817C56.5597 16.5817 54.8327 18.4004 55.0886 21.0044C55.2983 23.1817 56.8373 25.1432 58.142 26.907C61.9789 24.9408 63.8768 22.6826 63.632 20.2289C63.4218 18.1182 61.5051 16.5817 59.1762 16.5817Z" fill="#C32032"/>
    <path fill-rule="evenodd" clip-rule="evenodd" d="M115.063 64.0161L114.192 73.6897L0.809082 73.729L1.67754 64.0525L115.063 64.0161Z" fill="#C32032"/>
    <path fill-rule="evenodd" clip-rule="evenodd" d="M77.5475 47.0725L78.2502 39.272L71.7717 39.2754L77.5475 47.0725Z" fill="#C32032"/>
</svg>
