<svg width="19" height="10" viewBox="0 0 19 10" fill="none" xmlns="http://www.w3.org/2000/svg">
    <path d="M13.1459 9.80757L12.7477 9.41361C12.6224 9.28992 12.5532 9.12457 12.5532 8.94857C12.5532 8.77237 12.6224 8.59206 12.7477 8.46837L15.3065 5.92129H0.665167C0.29854 5.92129 0 5.6565 0 5.29383V4.73638C0 4.37381 0.29854 4.04205 0.665167 4.04205H15.3355L12.7477 1.50005C12.6224 1.37616 12.5532 1.2203 12.5532 1.0441C12.5532 0.868095 12.6224 0.707344 12.7477 0.583554L13.1459 0.191748C13.4051 -0.064632 13.8268 -0.0635564 14.086 0.192824L18.4726 4.53369C18.5975 4.65728 18.6667 4.82312 18.6667 5.00059C18.6667 5.17855 18.5975 5.34399 18.4726 5.46759L14.0861 9.80757C13.827 10.0641 13.4051 10.0641 13.1459 9.80757Z" fill="#003764"/>
</svg>
