<svg width="19" height="10" viewBox="0 0 19 10" fill="none" xmlns="http://www.w3.org/2000/svg">
    <path d="M5.52072 9.80757L5.91897 9.41361C6.04418 9.28992 6.11345 9.12457 6.11345 8.94857C6.11345 8.77237 6.04418 8.59206 5.91897 8.46837L3.36009 5.92129H18.0015C18.3681 5.92129 18.6666 5.6565 18.6666 5.29383V4.73638C18.6666 4.37381 18.3681 4.04205 18.0015 4.04205H3.33113L5.91897 1.50005C6.04418 1.37616 6.11345 1.2203 6.11345 1.0441C6.11345 0.868095 6.04418 0.707344 5.91897 0.583554L5.52072 0.191748C5.26151 -0.064632 4.83984 -0.0635564 4.58063 0.192824L0.194044 4.53369C0.0691338 4.65728 -4.00543e-05 4.82312 -4.00543e-05 5.00059C-4.00543e-05 5.17855 0.0691338 5.34399 0.194044 5.46759L4.58053 9.80757C4.83964 10.0641 5.26151 10.0641 5.52072 9.80757Z" fill="#003764"/>
</svg>
