<svg xmlns="http://www.w3.org/2000/svg" display="none">
    <symbol id="dots" viewBox="0 0 2 14">
        <circle cx="1" cy="1" r="1"/>
        <circle cx="1" cy="7" r="1"/>
        <circle cx="1" cy="13" r="1"/>
    </symbol>

    <symbol id="icon-arrow" viewBox="0 0 17 17">
        <path d="M16.1953 13.7856L15.0925 13.7845C14.8769 13.7844 14.6754 13.7007 14.5217 13.5469C14.3608 13.386 14.263 13.1609 14.263 12.955L14.2338 5.84247L14.2289 4.65307L2.1426 16.7433C1.81539 17.0706 1.34526 17.0857 1.04392 16.7842L0.262866 16.0029C-0.0670879 15.6729 -0.0883883 15.1087 0.210106 14.8101L12.3443 2.67197L4.00284 2.69298C3.78225 2.69273 3.59592 2.61763 3.44651 2.46817C3.295 2.31661 3.21549 2.12232 3.21533 1.90361L3.21725 0.804625C3.21683 0.360261 3.57855 -0.000414515 4.0233 3.57552e-07L16.173 0.0143355C16.3878 0.0145768 16.5901 0.0990922 16.7486 0.257645C16.9026 0.411647 16.9865 0.613427 16.9868 0.828296L17 12.9807C17.0007 13.4248 16.6394 13.7862 16.1953 13.7856Z"/>
    </symbol>

    <symbol id="arrow-right" viewBox="0 0 12 10">
        <path d="M6.54966 9.80757L6.15649 9.41361C6.03288 9.28992 5.96449 9.12457 5.96449 8.94857C5.96449 8.77237 6.03288 8.59206 6.15649 8.46837L8.68273 5.92129H0.656683C0.294732 5.92129 0 5.6565 0 5.29383V4.73638C0 4.37381 0.294732 4.04205 0.656683 4.04205H8.71132L6.15649 1.50005C6.03288 1.37616 5.96449 1.2203 5.96449 1.0441C5.96449 0.868095 6.03288 0.707344 6.15649 0.583554L6.54966 0.191748C6.80556 -0.064632 7.22185 -0.0635564 7.47776 0.192824L11.8084 4.53369C11.9317 4.65728 12 4.82312 12 5.00059V5.00244C12 5.17855 11.9317 5.34399 11.8084 5.46759L7.47785 9.80757C7.22205 10.0641 6.80556 10.0641 6.54966 9.80757Z"/>
    </symbol>

    <symbol id="icon1" viewBox="0 0 44 45">
        <path d="M42.2083 39.3396C40.0765 39.3396 38.9694 40.5479 38.0795 41.5164C37.274 42.3931 36.637 43.0862 35.3313 43.0862C34.0237 43.0862 33.3868 42.3931 32.5813 41.5164C31.6934 40.546 30.5843 39.3396 28.4543 39.3396C26.3244 39.3396 25.2191 40.5479 24.3293 41.5183C23.5257 42.3932 22.8924 43.0863 21.5886 43.0863C20.2848 43.0863 19.6497 42.3932 18.8442 41.5165C17.9582 40.5479 16.8511 39.3396 14.723 39.3396C12.5949 39.3396 11.4915 40.5479 10.6017 41.5164C9.79805 42.3931 9.16484 43.0862 7.86101 43.0862C6.55719 43.0862 5.92213 42.3931 5.11664 41.5164C4.23053 40.5479 3.1234 39.3396 0.995281 39.3396C0.478246 39.3396 0.0585938 39.7593 0.0585938 40.2763C0.0585938 40.7933 0.478246 41.213 0.995281 41.213C2.29911 41.213 2.93232 41.9061 3.73597 42.7809C4.62392 43.7513 5.73105 44.9595 7.86101 44.9595C9.99097 44.9595 11.0963 43.7513 11.9842 42.7809C12.786 41.906 13.4211 41.2129 14.723 41.2129C16.0268 41.2129 16.66 41.906 17.4637 42.7809C18.3516 43.7513 19.4587 44.9595 21.5887 44.9595C23.7168 44.9595 24.8239 43.7513 25.71 42.7828C26.5155 41.9061 27.1505 41.213 28.4543 41.213C29.76 41.213 30.397 41.9061 31.2025 42.7828C32.0924 43.7513 33.1995 44.9595 35.3313 44.9595C37.4613 44.9595 38.5703 43.7531 39.4582 42.7828C40.2637 41.9061 40.9007 41.213 42.2082 41.213C42.7252 41.213 43.1449 40.7933 43.1449 40.2763C43.1449 39.7593 42.7253 39.3396 42.2083 39.3396Z"
              fill="#003764"/>
        <path d="M42.2082 35.593C40.0764 35.593 38.9693 36.8013 38.0794 37.7698C37.2739 38.6466 36.6369 39.3397 35.3312 39.3397C34.0236 39.3397 33.3867 38.6466 32.5812 37.7699C31.6933 36.7995 30.5843 35.5931 28.4543 35.5931C26.3244 35.5931 25.2191 36.8014 24.3293 37.7718C23.5256 38.6466 22.8924 39.3397 21.5886 39.3397C20.2848 39.3397 19.6497 38.6466 18.8442 37.7699C17.9581 36.8014 16.851 35.5931 14.723 35.5931C12.5949 35.5931 11.4915 36.8014 10.6017 37.7699C9.79796 38.6466 9.16475 39.3397 7.86093 39.3397C6.5571 39.3397 5.92204 38.6466 5.11655 37.7699C4.23044 36.8014 3.12331 35.5931 0.995281 35.5931C0.478246 35.5931 0.0585938 36.0128 0.0585938 36.5298C0.0585938 37.0468 0.478246 37.4665 0.995281 37.4665C2.29911 37.4665 2.93232 38.1596 3.73597 39.0344C4.62392 40.0049 5.73105 41.2131 7.86101 41.2131C9.99097 41.2131 11.0963 40.0049 11.9842 39.0344C12.786 38.1596 13.4211 37.4665 14.723 37.4665C16.0268 37.4665 16.66 38.1596 17.4637 39.0344C18.3516 40.0049 19.4587 41.2131 21.5887 41.2131C23.7168 41.2131 24.8239 40.0049 25.71 39.0364C26.5155 38.1597 27.1505 37.4666 28.4543 37.4666C29.76 37.4666 30.397 38.1597 31.2025 39.0364C32.0923 40.0049 33.1994 41.2131 35.3313 41.2131C37.4613 41.2131 38.5703 40.0067 39.4582 39.0364C40.2637 38.1597 40.9007 37.4666 42.2082 37.4666C42.7252 37.4666 43.1449 37.0469 43.1449 36.5299C43.1448 36.0127 42.7252 35.593 42.2082 35.593Z"
              fill="#003764"/>
        <path d="M39.3046 21.131C39.1772 20.8763 38.9431 20.6908 38.6658 20.629L21.8059 16.8823C21.6711 16.8524 21.5343 16.8524 21.3995 16.8823L4.53962 20.629C4.26046 20.6908 4.02636 20.8763 3.90079 21.131C3.77715 21.3857 3.7753 21.6855 3.89517 21.9421L11.3884 37.8653C11.6076 38.3355 12.1696 38.5359 12.6342 38.3149C13.1025 38.0939 13.303 37.5355 13.0819 37.0672L6.08888 22.2025L21.6018 18.7556L37.1147 22.2025L30.1216 37.0672C29.9006 37.5355 30.101 38.0939 30.5694 38.3149C30.6968 38.3748 30.8354 38.4029 30.9684 38.4029C31.3206 38.4029 31.6559 38.2044 31.817 37.8653L39.3102 21.9421C39.4301 21.6855 39.4283 21.3857 39.3046 21.131Z"
              fill="#003764"/>
        <path d="M35.6403 20.4623L34.1341 10.6705C33.8456 8.7972 32.4762 7.2929 30.6423 6.83952C28.3999 6.28315 25.0092 5.62 21.6016 5.62C18.1941 5.62 14.8033 6.28315 12.561 6.84137C10.7289 7.29474 9.3576 8.79895 9.06914 10.6723L7.56299 20.4641C7.48432 20.9755 7.83653 21.4532 8.34601 21.5319C8.87051 21.6124 9.33512 21.2603 9.4138 20.7489L10.9199 10.9571C11.0942 9.83311 11.9147 8.93014 13.0106 8.65854C15.1536 8.12649 18.3832 7.49337 21.6016 7.49337C24.82 7.49337 28.0496 8.12658 30.1927 8.65854C31.2886 8.93014 32.1091 9.83127 32.2833 10.9571L33.7894 20.7489C33.8607 21.2116 34.2597 21.5432 34.713 21.5432C34.7598 21.5432 34.8085 21.5394 34.8572 21.5301C35.3667 21.4514 35.7189 20.9737 35.6403 20.4623Z"
              fill="#003764"/>
        <path d="M21.6017 0C21.0847 0 20.665 0.419652 20.665 0.936687V6.55664C20.665 7.07367 21.0847 7.49332 21.6017 7.49332C22.1188 7.49332 22.5384 7.07367 22.5384 6.55664V0.936687C22.5384 0.419652 22.1188 0 21.6017 0Z"
              fill="#003764"/>
        <path d="M25.3484 0H17.8551C17.3381 0 16.9185 0.419652 16.9185 0.936687C16.9185 1.45372 17.3381 1.87337 17.8551 1.87337H25.3484C25.8654 1.87337 26.2851 1.45372 26.2851 0.936687C26.2851 0.419652 25.8654 0 25.3484 0Z"
              fill="#003764"/>
        <path d="M31.3261 15.0577C31.135 14.979 26.5697 13.1132 21.6017 13.1132C16.6337 13.1132 12.0684 14.979 11.8773 15.0577C11.3996 15.2562 11.173 15.8033 11.3697 16.281C11.5682 16.7605 12.1209 16.9872 12.5911 16.7886C12.636 16.7717 17.0178 14.9864 21.6017 14.9864C26.1856 14.9864 30.5674 16.7717 30.6123 16.7886C30.7266 16.8373 30.8502 16.8598 30.9682 16.8598C31.3354 16.8598 31.6857 16.6425 31.8337 16.281C32.0305 15.8014 31.8037 15.2544 31.3261 15.0577Z"
              fill="#C32032"/>
        <path d="M30.5412 11.3916C30.4138 11.3073 27.3529 9.36658 21.6017 9.36658C15.8506 9.36658 12.7896 11.3073 12.6622 11.3916C12.2295 11.6708 12.1077 12.2477 12.385 12.6823C12.6642 13.1132 13.2374 13.2406 13.6794 12.9652C13.7057 12.9483 16.4501 11.2399 21.6017 11.2399C26.7534 11.2399 29.4978 12.9483 29.5221 12.9614C29.6794 13.0644 29.8555 13.1132 30.0317 13.1132C30.337 13.1132 30.6386 12.9633 30.8166 12.686C31.0976 12.2533 30.974 11.6726 30.5412 11.3916Z"
              fill="#C32032"/>
        <path d="M21.6017 20.6064C21.0847 20.6064 20.665 21.0261 20.665 21.5431V40.2763C20.665 40.7933 21.0847 41.213 21.6017 41.213C22.1188 41.213 22.5384 40.7933 22.5384 40.2763V21.543C22.5384 21.026 22.1188 20.6064 21.6017 20.6064Z"
              fill="#003764"/>
    </symbol>
    <symbol id="icon2" viewBox="0 0 48 30">
        <path fill-rule="evenodd" clip-rule="evenodd"
              d="M4 25C4 22.244 6.24194 20 8.99997 20C11.758 20 13.9999 22.2441 13.9999 25.0001C13.9999 27.756 11.758 30 8.99997 30C6.24194 30 4 27.7559 4 25ZM5.99997 25.0001C5.99997 26.6541 7.34594 28.0001 8.99997 28.0001C10.654 28.0001 12 26.6541 12 25.0001C12 23.346 10.654 22.0001 8.99997 22.0001C7.34594 22.0001 5.99997 23.346 5.99997 25.0001Z"
              fill="#003764"/>
        <path fill-rule="evenodd" clip-rule="evenodd"
              d="M34 25C34 22.244 36.2419 20 39 20C41.758 20 43.9999 22.2441 43.9999 25.0001C43.9999 27.756 41.758 30 39 30C36.2419 30 34 27.7559 34 25ZM36 25.0001C36 26.6541 37.3459 28.0001 39 28.0001C40.654 28.0001 42 26.6541 42 25.0001C42 23.346 40.654 22.0001 39 22.0001C37.3459 22.0001 36 23.346 36 25.0001Z"
              fill="#003764"/>
        <path d="M31 16H29C28.448 16 28 16.448 28 17C28 17.552 28.4479 18 28.9999 18H30.9999C31.5519 18 31.9999 17.5519 31.9999 16.9999C31.9999 16.4479 31.552 16 31 16Z"
              fill="#C32032"/>
        <path d="M45.728 12.65C44.276 12.2859 42.9519 11.5359 41.898 10.4799L32.88 1.46391C31.934 0.520031 30.68 0 29.344 0H4.99997C2.24203 0 0 2.244 0 4.99997V21C0 23.756 2.24203 26 4.99997 26C5.55197 26 6 25.5519 6 24.9999C6 24.4479 5.55197 24 4.99997 24C3.34594 24 1.99997 22.654 1.99997 21V4.99997C1.99997 3.34594 3.34594 1.99997 4.99997 1.99997H29.3439C30.1319 1.99997 30.9059 2.31994 31.4639 2.88L40.4819 11.896C41.7919 13.21 43.4399 14.142 45.2419 14.592C45.6878 14.704 45.9998 15.102 45.9998 15.562V21C45.9998 22.654 44.6539 24 42.9998 24C42.4478 24 41.9998 24.448 41.9998 25C41.9998 25.552 42.4478 26.0001 42.9998 26.0001C45.758 26 48 23.756 48 21V15.562C48 14.182 47.064 12.986 45.728 12.65Z"
              fill="#003764"/>
        <path d="M35 24H13C12.448 24 12 24.448 12 25C12 25.552 12.448 26.0001 13 26.0001H35.0001C35.5521 26.0001 36.0001 25.552 36.0001 25C36.0001 24.448 35.552 24 35 24Z"
              fill="#003764"/>
        <path d="M37 11.9999H26V4.99991C26 4.44791 25.5519 3.99988 24.9999 3.99988C24.4479 3.99988 24 4.44791 24 4.99991V12.9999C24 13.5519 24.448 13.9999 25 13.9999H37C37.552 13.9999 38.0001 13.5519 38.0001 12.9999C38.0001 12.4479 37.552 11.9999 37 11.9999Z"
              fill="#003764"/>
        <path d="M19 6H7.00003C6.44803 6 6 6.44803 6 7.00003C6 7.55203 6.44803 8.00006 7.00003 8.00006H19C19.552 8.00006 20.0001 7.55203 20.0001 7.00003C20.0001 6.44803 19.552 6 19 6Z"
              fill="#C32032"/>
        <path d="M19 12H7.00003C6.44803 12 6 12.448 6 13C6 13.552 6.44803 14.0001 7.00003 14.0001H19C19.552 14.0001 20.0001 13.552 20.0001 13C20.0001 12.448 19.552 12 19 12Z"
              fill="#C32032"/>
    </symbol>

    <symbol id="icon3" viewBox="0 0 46 40">
        <path d="M32.1497 12.9633L26.4609 0.637387C26.2693 0.225921 25.8161 0.00778731 25.3705 0.115876L21.5778 1.06405C21.1227 1.17783 20.8193 1.61019 20.8649 2.07854L21.813 11.5601C21.8642 12.0816 22.3269 12.4608 22.8503 12.4096C23.3718 12.3584 23.751 11.8937 23.6998 11.3723L22.8332 2.70628L25.0689 2.1469L30.426 13.7598C30.5872 14.1087 30.9305 14.3116 31.2889 14.3116C31.4216 14.3116 31.5581 14.2832 31.6852 14.2225C32.1611 14.0025 32.3697 13.4375 32.1497 12.9633Z"
              fill="#003764"/>
        <path d="M42.001 18.1478C41.5952 18.0188 41.1629 18.1838 40.9334 18.5214C40.7684 18.622 39.898 19.0524 36.9777 19.0524C36.4543 19.0524 36.0295 19.4772 36.0295 20.0005C36.0295 20.5239 36.4543 20.9487 36.9777 20.9487C40.3892 20.9487 42.2893 20.4064 42.623 19.3349C42.7804 18.8362 42.5016 18.3033 42.001 18.1478Z"
              fill="#C32032"/>
        <path fill-rule="evenodd" clip-rule="evenodd"
              d="M31.581 19.0979C31.8276 19.1776 32.0304 19.3539 32.1423 19.5872C32.2561 19.8204 32.2675 20.0896 32.1765 20.3324L26.4876 35.5028C26.3472 35.8783 25.9888 36.1191 25.6001 36.1191C25.5375 36.1191 25.4768 36.1134 25.4124 36.1001L20.6717 35.152C20.1881 35.0552 19.8582 34.602 19.9169 34.1109L21.8132 17.9924C21.8701 17.5164 22.2759 17.1561 22.7557 17.1561C25.5603 17.1561 31.3364 19.0183 31.581 19.0979ZM21.9023 33.4642L24.9952 34.0824L30.0488 20.6093C28.545 20.156 25.5831 19.3179 23.5938 19.1036L21.9023 33.4642Z"
              fill="#003764"/>
        <path d="M29.6145 12.4399C22.8295 10.8091 15.0054 9.86471 12.9422 9.63147L9.38098 2.50898C9.18187 2.11262 8.73431 1.90409 8.30391 2.01404L4.51129 2.96222C4.08844 3.06844 3.79262 3.44578 3.79262 3.88196V9.2864C2.8824 9.1176 1.70098 9.06453 0.883733 9.63911C0.479733 9.92169 0 10.4697 0 11.4671C0 11.8956 0 13.1567 3.36027 15.4569L1.9456 19.6989C1.84702 19.9891 1.89627 20.3076 2.07458 20.5541C2.2528 20.8026 2.5392 20.9485 2.84444 20.9485H7.58516C7.94356 20.9485 8.27164 20.7456 8.4328 20.4233L9.28996 18.7091C12.1382 20.0061 16.3802 21.6502 21.5988 22.8203C22.1147 22.9416 22.6172 22.6136 22.7309 22.1035C22.8466 21.5933 22.5261 21.0852 22.0141 20.9714C17.6526 19.9929 13.1224 18.4436 9.26151 16.6042C8.79316 16.3823 8.23751 16.5757 8.00613 17.0365L6.9992 19.0523H4.16044L5.38738 15.3697C5.52391 14.9582 5.36649 14.5068 5.0024 14.2717C2.52018 12.6732 1.91902 11.7022 1.89627 11.4671C1.89627 11.2452 1.95316 11.2036 1.97404 11.1884C2.33627 10.9362 3.55369 11.1012 4.42213 11.4102C4.71227 11.5164 5.03653 11.4728 5.28684 11.2926C5.53902 11.1163 5.68889 10.828 5.68889 10.5189V4.62151L8.02516 4.03742L11.4783 10.9419C11.6224 11.232 11.9068 11.4292 12.2292 11.4634C12.3184 11.4729 21.4434 12.4267 29.184 14.2889C36.1604 15.8552 43.6148 19.1756 43.6148 23.7932C43.6148 23.8823 43.5978 23.9183 43.5257 23.9771C42.5131 24.802 38.1838 24.4284 30.665 22.8696C30.153 22.7615 29.6524 23.0915 29.5443 23.6053C29.438 24.1173 29.7661 24.6198 30.28 24.726C35.3279 25.7709 38.8133 26.2829 41.1685 26.2829C42.9169 26.2829 44.0433 26.0023 44.7241 25.4485C45.238 25.0276 45.511 24.4568 45.511 23.7931C45.5111 16.5739 33.3331 13.2762 29.6145 12.4399Z"
              fill="#003764"/>
        <path d="M21.8074 38.0153H0.948178C0.4248 38.0153 0 38.4401 0 38.9634C0 39.4868 0.4248 39.9116 0.948178 39.9116H21.8075C22.3308 39.9116 22.7556 39.4868 22.7556 38.9634C22.7556 38.4401 22.3308 38.0153 21.8074 38.0153Z"
              fill="#C32032"/>
    </symbol>

    <symbol id="icon4" viewBox="0 0 32 44">
        <path d="M8.87164 33.1664C8.47786 32.8515 7.90286 32.9174 7.5842 33.3093L0.258593 42.4662C-0.0563775 42.8618 0.00766388 43.4368 0.401441 43.7536C0.569957 43.8873 0.773241 43.9532 0.972834 43.9532C1.24025 43.9532 1.50757 43.836 1.68888 43.6108L9.0144 34.4538C9.32946 34.0583 9.26542 33.4832 8.87164 33.1664Z"
              fill="#003764"/>
        <path d="M30.9895 42.4644L23.664 33.3074C23.349 32.9155 22.7721 32.8477 22.3765 33.1646C21.9828 33.4814 21.9187 34.0564 22.2337 34.452L29.5592 43.609C29.7405 43.836 30.006 43.9533 30.2753 43.9533C30.4767 43.9533 30.6781 43.8874 30.8467 43.7518C31.2403 43.435 31.3045 42.86 30.9895 42.4644Z"
              fill="#003764"/>
        <path d="M28.4438 40.2905H2.80439C2.29893 40.2905 1.88867 40.7008 1.88867 41.2063C1.88867 41.7117 2.29893 42.122 2.80439 42.122H28.4439C28.9493 42.122 29.3596 41.7117 29.3596 41.2063C29.3595 40.7008 28.9492 40.2905 28.4438 40.2905Z"
              fill="#003764"/>
        <path d="M25.6967 36.6278H5.55146C5.046 36.6278 4.63574 37.0381 4.63574 37.5435C4.63574 38.049 5.046 38.4593 5.55146 38.4593H25.6968C26.2022 38.4593 26.6125 38.049 26.6125 37.5435C26.6124 37.038 26.2021 36.6278 25.6967 36.6278Z"
              fill="#003764"/>
        <path fill-rule="evenodd" clip-rule="evenodd"
              d="M29.6451 6.05457L30.9747 29.9652C31.0461 31.2343 30.6029 32.443 29.7293 33.3661C28.8558 34.2873 27.6745 34.7964 26.4036 34.7964H4.84448C3.57352 34.7964 2.39228 34.2873 1.5187 33.3643C0.645132 32.4412 0.201908 31.2325 0.273332 29.9634L1.60292 6.05457C1.78972 2.65918 4.60093 0 8.00182 0H23.2462C26.6471 0 29.4583 2.65918 29.6451 6.05457ZM26.4018 32.965C27.1655 32.965 27.8742 32.6591 28.398 32.1061C28.9217 31.553 29.1873 30.8278 29.1453 30.066L27.8175 6.15535C27.6838 3.73062 25.6747 1.83145 23.2463 1.83145H8.00182C5.5734 1.83145 3.56434 3.73062 3.43067 6.15535L2.10109 30.066C2.05894 30.8278 2.32454 31.553 2.84829 32.1061C3.37384 32.6591 4.08259 32.965 4.84448 32.965H26.4018Z"
              fill="#003764"/>
        <path fill-rule="evenodd" clip-rule="evenodd"
              d="M14 5C14 3.89731 14.8973 3 16 3C17.1027 3 18 3.89737 18 5C18 6.10269 17.1027 7 16 7C14.8973 7 14 6.10269 14 5ZM15.3333 5C15.3333 5.368 15.632 5.66669 16 5.66669C16.368 5.66669 16.6667 5.36806 16.6667 5.00006C16.6667 4.63206 16.368 4.33337 16 4.33337C15.632 4.33337 15.3333 4.632 15.3333 5Z"
              fill="#003764"/>
        <path fill-rule="evenodd" clip-rule="evenodd"
              d="M13.9909 8.00517C14.2491 7.97817 14.5055 8.0574 14.6982 8.23021C14.8891 8.39938 15 8.64424 15 8.89982V15.1999C15 15.6589 14.6528 16.0442 14.1909 16.0946L6.00909 16.9946C5.97637 16.9982 5.94364 17 5.90912 17C5.68548 17 5.47097 16.919 5.30367 16.7714C5.11088 16.6005 5 16.3556 5 16.1V9.79987C5 9.34086 5.34722 8.95559 5.80906 8.90522L13.9909 8.00517ZM6.81816 15.0956L13.1818 14.3954V9.90602L6.81816 10.6063V15.0956Z"
              fill="#003764"/>
        <path fill-rule="evenodd" clip-rule="evenodd"
              d="M17.011 8.00459L25.1928 8.90451C25.6528 8.95665 26.0001 9.34186 26 9.80089V16.1002C26 16.3557 25.889 16.6004 25.6963 16.7715C25.529 16.919 25.3145 17 25.0909 17C25.0564 17 25.0236 16.9982 24.9909 16.9946L16.8091 16.0947C16.3473 16.0442 16 15.6591 16 15.2002V8.90088C16 8.64534 16.111 8.4006 16.3037 8.22959C16.4965 8.05859 16.7528 7.97937 17.011 8.00459ZM17.8182 14.3938L24.1819 15.0939V10.6071L17.8182 9.90694V14.3938Z"
              fill="#003764"/>
        <path d="M16.3181 25.9582C15.9866 25.5717 8.11351 16.4825 1.88862 16.4825C1.38316 16.4825 0.9729 16.8928 0.9729 17.3983C0.9729 17.9037 1.38316 18.3139 1.88862 18.3139C7.27471 18.3139 14.853 27.0624 14.93 27.1522C15.1113 27.3628 15.3658 27.4709 15.624 27.4709C15.8365 27.4709 16.0471 27.3976 16.2192 27.2493C16.6038 26.9197 16.6478 26.3409 16.3181 25.9582Z"
              fill="#003764"/>
        <path d="M29.3593 16.4825C23.1345 16.4825 15.2613 25.5717 14.928 25.9582C14.6001 26.341 14.6441 26.9197 15.0269 27.2493C15.2009 27.3976 15.4115 27.4709 15.6239 27.4709C15.8822 27.4709 16.1386 27.3628 16.318 27.1522C18.4278 24.6926 24.8853 18.3139 29.3593 18.3139C29.8648 18.3139 30.2751 17.9036 30.2751 17.3982C30.2751 16.8927 29.8648 16.4825 29.3593 16.4825Z"
              fill="#003764"/>
        <path fill-rule="evenodd" clip-rule="evenodd"
              d="M3.71997 28.3865C3.71997 26.8719 4.95247 25.6394 6.46705 25.6394C7.98164 25.6394 9.21414 26.8719 9.21414 28.3865C9.21414 29.9011 7.98164 31.1336 6.46705 31.1336C4.95247 31.1336 3.71997 29.9011 3.71997 28.3865ZM5.55133 28.3864C5.55133 28.8919 5.96159 29.3021 6.46705 29.3021C6.97252 29.3021 7.38278 28.8919 7.38278 28.3865C7.38278 27.881 6.97252 27.4708 6.46705 27.4708C5.96159 27.4708 5.55133 27.8809 5.55133 28.3864Z"
              fill="#C32032"/>
        <path fill-rule="evenodd" clip-rule="evenodd"
              d="M22.0339 28.3865C22.0339 26.8719 23.2664 25.6394 24.781 25.6394C26.2955 25.6394 27.5281 26.8719 27.5281 28.3865C27.5281 29.9011 26.2956 31.1336 24.781 31.1336C23.2664 31.1336 22.0339 29.9011 22.0339 28.3865ZM23.8653 28.3864C23.8653 28.8919 24.2756 29.3021 24.781 29.3021C25.2865 29.3021 25.6967 28.8919 25.6967 28.3865C25.6967 27.881 25.2865 27.4708 24.781 27.4708C24.2756 27.4708 23.8653 27.8809 23.8653 28.3864Z"
              fill="#C32032"/>
    </symbol>

    <symbol id="icon5" viewBox="0 0 33 22">
        <g id="Page-1" stroke="none" stroke-width="1" fill="none" fill-rule="evenodd">
            <g id="elements-mobile" transform="translate(-441.000000, -3040.000000)">
                <g id="icon-5" transform="translate(422.000000, 3016.000000)">
                    <circle id="Oval-Copy-8" fill="#EBF0F5" cx="35" cy="35" r="35"></circle>
                    <g id="icon_5" transform="translate(19.444444, 24.888889)" fill-rule="nonzero">
                        <path d="M3.88886458,20.2222708 C2.51171409,20.2222708 1.29995359,19.5028559 0.608847839,18.4205451 C0.223345551,17.8166684 -3.32178729e-13,17.1005379 -3.32178729e-13,16.3334063 L-3.32178729e-13,16.3334063 L-3.32178729e-13,3.8889375 L0.00506782405,3.68918894 C0.0690007782,2.43202263 0.73290151,1.33005373 1.7157491,0.665295227 L1.87354512,0.563987877 C2.40809381,0.238758604 3.02689631,0.0387495985 3.68898151,0.00507216994 L3.88886458,1.24344979e-13 L27.3414805,1.24344979e-13 C28.0788457,1.24344979e-13 28.7687964,0.206235677 29.3567999,0.563987877 L29.514596,0.665295227 C30.5491724,1.36504102 31.2303451,2.54923047 31.2303451,3.8889375 L31.2303451,3.8889375 L31.2303451,16.3334063 C31.2303451,18.4769375 29.486543,20.2222708 27.3414805,20.2222708 L27.3414805,20.2222708 L3.88886458,20.2222708 L3.88886458,20.2222708 Z M27.3414805,1.55560417 L3.88886458,1.55553125 L3.72936232,1.56099819 C3.00532768,1.61012404 2.37079099,1.99112624 1.97707942,2.55267764 C1.74011066,2.89069316 1.59047579,3.29383601 1.56092527,3.72936232 L1.55553125,3.88886458 L1.55553125,16.3333333 C1.55553125,17.2981849 2.14439258,18.1282591 2.98155225,18.482993 L3.12331952,18.5377285 C3.36323542,18.6213028 3.62085026,18.6667396 3.88886458,18.6667396 L3.88886458,18.6667396 L27.3414805,18.6666667 L27.3414805,18.6666667 C28.6279492,18.6666667 29.6748138,17.6198021 29.6748138,16.3333333 L29.6748138,3.88886458 C29.6748138,3.39237903 29.5188926,2.93158041 29.253452,2.55287061 C28.8308904,1.95024314 28.1313475,1.55560417 27.3414805,1.55560417 L27.3414805,1.55560417 Z"
                              id="Combined-Shape" fill="#003764"></path>
                        <path d="M23.3333333,3.88888889 C22.4756875,3.88888889 21.7777778,4.58679861 21.7777778,5.44444444 C21.7777778,6.30209028 22.4756875,7 23.3333333,7 C24.1909792,7 24.8888889,6.30209028 24.8888889,5.44444444 C24.8888889,4.58684722 24.1909792,3.88888889 23.3333333,3.88888889 Z M23.3333333,5.96297917 C23.0471111,5.96297917 22.8147986,5.73066667 22.8147986,5.44444444 C22.8147986,5.15822222 23.0471111,4.92595833 23.3333333,4.92595833 C23.6195556,4.92595833 23.8518681,5.15827083 23.8518681,5.44449306 C23.8518681,5.73071528 23.6195556,5.96297917 23.3333333,5.96297917 Z"
                              id="Shape" fill="#003764"></path>
                        <path d="M23.3333333,8.55555556 C22.4756875,8.55555556 21.7777778,9.25346528 21.7777778,10.1111111 C21.7777778,10.9687569 22.4756875,11.6666667 23.3333333,11.6666667 C24.1909792,11.6666667 24.8888889,10.9687569 24.8888889,10.1111111 C24.8888889,9.25351389 24.1909792,8.55555556 23.3333333,8.55555556 Z M23.3333333,10.6296458 C23.0471111,10.6296458 22.8147986,10.3973333 22.8147986,10.1111111 C22.8147986,9.82488889 23.0471111,9.592625 23.3333333,9.592625 C23.6195556,9.592625 23.8518681,9.8249375 23.8518681,10.1111597 C23.8518681,10.3973819 23.6195556,10.6296458 23.3333333,10.6296458 Z"
                              id="Shape-Copy" fill="#003764"></path>
                        <path d="M23.3333333,13.2222222 C22.4756875,13.2222222 21.7777778,13.9201319 21.7777778,14.7777778 C21.7777778,15.6354236 22.4756875,16.3333333 23.3333333,16.3333333 C24.1909792,16.3333333 24.8888889,15.6354236 24.8888889,14.7777778 C24.8888889,13.9201806 24.1909792,13.2222222 23.3333333,13.2222222 Z M23.3333333,15.2963125 C23.0471111,15.2963125 22.8147986,15.064 22.8147986,14.7777778 C22.8147986,14.4915556 23.0471111,14.2592917 23.3333333,14.2592917 C23.6195556,14.2592917 23.8518681,14.4916042 23.8518681,14.7778264 C23.8518681,15.0640486 23.6195556,15.2963125 23.3333333,15.2963125 Z"
                              id="Shape-Copy-2" fill="#003764"></path>
                        <path d="M14.7778021,4.66666667 L5.44446875,4.66666667 C5.01513542,4.66666667 4.66666667,5.01513542 4.66666667,5.44446875 C4.66666667,5.87380208 5.01513542,6.22227083 5.44446875,6.22227083 L14.7778021,6.22227083 C15.2071354,6.22227083 15.5556042,5.87380208 15.5556042,5.44446875 C15.5556042,5.01513542 15.2071354,4.66666667 14.7778021,4.66666667 Z"
                              id="Path" fill="#C32032"></path>
                        <path d="M14.7778021,9.33333333 L5.44446875,9.33333333 C5.01513542,9.33333333 4.66666667,9.68180208 4.66666667,10.1111354 C4.66666667,10.5404687 5.01513542,10.8889375 5.44446875,10.8889375 L14.7778021,10.8889375 C15.2071354,10.8889375 15.5556042,10.5404687 15.5556042,10.1111354 C15.5556042,9.68180208 15.2071354,9.33333333 14.7778021,9.33333333 Z"
                              id="Path" fill="#C32032"></path>
                        <path d="M14.7778021,14 L5.44446875,14 C5.01513542,14 4.66666667,14.3484687 4.66666667,14.7778021 C4.66666667,15.2071354 5.01513542,15.5556042 5.44446875,15.5556042 L14.7778021,15.5556042 C15.2071354,15.5556042 15.5556042,15.2071354 15.5556042,14.7778021 C15.5556042,14.3484687 15.2071354,14 14.7778021,14 Z"
                              id="Path-Copy-2" fill="#C32032"></path>
                    </g>
                </g>
            </g>
        </g>
    </symbol>

    <symbol id="icon6" viewBox="0 0 48 26">
        <path fill-rule="evenodd" clip-rule="evenodd"
              d="M3.99048 19.9833C3.99048 16.6833 6.67605 13.9977 9.97609 13.9977C13.2761 13.9977 15.9617 16.6833 15.9617 19.9833C15.9617 23.2833 13.2761 25.9689 9.97609 25.9689C6.67605 25.9689 3.99048 23.2833 3.99048 19.9833ZM5.98565 19.9833C5.98565 22.1839 7.77535 23.9736 9.97609 23.9736C12.1767 23.9736 13.9665 22.184 13.9665 19.9833C13.9665 17.7826 12.1768 15.9929 9.97609 15.9929C7.77535 15.9929 5.98565 17.7826 5.98565 19.9833Z"
              fill="#003764"/>
        <path fill-rule="evenodd" clip-rule="evenodd"
              d="M31.9233 19.9833C31.9233 16.6833 34.6089 13.9977 37.909 13.9977C41.2091 13.9977 43.8946 16.6833 43.8946 19.9833C43.8946 23.2833 41.209 25.9689 37.909 25.9689C34.6089 25.9689 31.9233 23.2833 31.9233 19.9833ZM33.9185 19.9832C33.9185 22.1839 35.7082 23.9736 37.909 23.9736C40.1097 23.9736 41.8994 22.184 41.8994 19.9833C41.8994 17.7826 40.1097 15.9929 37.909 15.9929C35.7083 15.9929 33.9185 17.7825 33.9185 19.9832Z"
              fill="#003764"/>
        <path d="M42.8969 8.00995H39.3893C38.0565 8.00995 36.8036 7.49116 35.8619 6.54946L31.3885 2.07624C30.0697 0.757444 28.316 0.0311279 26.4504 0.0311279H14.964C13.314 0.0311279 11.9712 1.37387 11.9712 3.02393V8.01191H0.997633C0.446957 8.01201 0 8.45887 0 9.00955V18.9856C0 19.0953 0.0179568 19.2051 0.0538705 19.3108C0.0917482 19.4185 1.01755 21.9784 4.98798 21.9784C5.53865 21.9784 5.98561 21.5314 5.98561 20.9808C5.98561 20.4301 5.53865 19.9831 4.98798 19.9831C2.90499 19.9831 2.18269 19.0753 1.99517 18.764V10.0072H12.9688C13.5194 10.0072 13.9664 9.56022 13.9664 9.00955V3.02393C13.9664 2.47326 14.4134 2.0263 14.964 2.0263H26.4504C27.7832 2.0263 29.0362 2.54508 29.98 3.48875L34.4532 7.96197C35.772 9.28077 37.5258 10.0071 39.3913 10.0071H42.8969C44.547 10.0071 45.8897 11.3498 45.8897 12.9999V16.9903C45.8897 19.1971 44.3435 19.9831 42.8969 19.9831C42.3462 19.9831 41.8993 20.4301 41.8993 20.9808C41.8993 21.5314 42.3462 21.9784 42.8969 21.9784C45.8338 21.9784 47.8849 19.9273 47.8849 16.9884V12.9979C47.8849 10.2486 45.6463 8.00995 42.8969 8.00995Z"
              fill="#003764"/>
        <path d="M32.9208 19.9833H14.9639C14.4133 19.9833 13.9663 20.4302 13.9663 20.9809C13.9663 21.5316 14.4133 21.9785 14.9639 21.9785H32.9208C33.4715 21.9785 33.9184 21.5316 33.9184 20.9809C33.9184 20.4301 33.4715 19.9833 32.9208 19.9833Z"
              fill="#003764"/>
        <path d="M24.9401 12.0023H22.9449C22.3942 12.0023 21.9473 12.4493 21.9473 13C21.9473 13.5506 22.3942 13.9976 22.9449 13.9976H24.9401C25.4907 13.9976 25.9377 13.5506 25.9377 13C25.9377 12.4493 25.4907 12.0023 24.9401 12.0023Z"
              fill="#C32032"/>
        <path d="M30.9258 8.01205H23.9425V5.01924C23.9425 4.46856 23.4956 4.02161 22.9449 4.02161C22.3942 4.02161 21.9473 4.46856 21.9473 5.01924V9.00968C21.9473 9.56035 22.3942 10.0073 22.9449 10.0073H30.9257C31.4764 10.0073 31.9233 9.56035 31.9233 9.00968C31.9233 8.459 31.4765 8.01205 30.9258 8.01205Z"
              fill="#C32032"/>
    </symbol>

    <symbol id="phone-call" viewBox="0 0 22 23">
        <path d="M19.018 2.9463C17.1179 1.04622 14.5915 -0.00010628 11.9045 0C11.4642 0 11.1074 0.356889 11.1074 0.797101C11.1074 1.23731 11.4643 1.5942 11.9045 1.5942C14.1657 1.5941 16.2917 2.47463 17.8906 4.07361C19.4897 5.6726 20.3703 7.79863 20.3702 10.06C20.3702 10.5002 20.7269 10.8571 21.1673 10.8571C21.6075 10.8571 21.9644 10.5002 21.9644 10.0601C21.9645 7.37276 20.9181 4.84638 19.018 2.9463Z"
              fill="#003764"/>
        <path d="M15.739 10.06C15.739 10.5003 16.0959 10.8572 16.5362 10.857C16.9764 10.857 17.3332 10.5002 17.3332 10.0599C17.333 7.06709 14.8977 4.63189 11.9046 4.63147C11.9045 4.63147 11.9046 4.63147 11.9045 4.63147C11.4643 4.63147 11.1075 4.98825 11.1074 5.42846C11.1074 5.86868 11.4642 6.22557 11.9044 6.22567C14.0186 6.22599 15.7388 7.94603 15.739 10.06Z"
              fill="#003764"/>
        <path d="M13.9765 14.1242C12.7616 14.0613 12.1426 14.9649 11.8457 15.399C11.5971 15.7623 11.6902 16.2583 12.0536 16.5069C12.417 16.7555 12.913 16.6624 13.1616 16.299C13.5123 15.7862 13.6712 15.7056 13.8867 15.7158C14.5766 15.7969 17.2937 17.7879 17.5657 18.4105C17.634 18.5938 17.6314 18.7736 17.5582 18.9922C17.2729 19.8388 16.8007 20.4338 16.1924 20.7127C15.6144 20.9776 14.9059 20.9536 14.1437 20.6435C11.2979 19.4835 8.81154 17.8648 6.75396 15.8321C6.75311 15.8312 6.75226 15.8305 6.75151 15.8296C4.72305 13.774 3.10727 11.2909 1.94924 8.4494C1.63901 7.68663 1.61499 6.97796 1.87995 6.40011C2.15883 5.79176 2.75378 5.31956 3.59967 5.03462C3.81903 4.96108 3.99843 4.95874 4.18006 5.02633C4.80489 5.29937 6.79583 8.01631 6.87618 8.69842C6.88766 8.92203 6.80635 9.08081 6.29398 9.4309C5.9305 9.67917 5.83708 10.1752 6.08546 10.5387C6.33373 10.9021 6.82963 10.9955 7.19321 10.7472C7.62748 10.4507 8.53086 9.83338 8.46815 8.61424C8.39907 7.3408 5.92189 3.96842 4.73825 3.5332C4.21184 3.33701 3.65812 3.33361 3.09186 3.52364C1.81778 3.95269 0.897601 4.71769 0.430818 5.73586C-0.0219352 6.72363 -0.00758731 7.86965 0.472799 9.05063C1.71213 12.0915 3.44609 14.7522 5.62643 16.9592C5.63175 16.9646 5.63717 16.9699 5.64269 16.9751C7.84801 19.1514 10.5056 20.8822 13.5425 22.12C14.1506 22.3673 14.7495 22.4911 15.3223 22.4911C15.8615 22.4911 16.3778 22.3815 16.8567 22.1619C17.875 21.6952 18.6399 20.7751 19.0693 19.5002C19.2589 18.935 19.2558 18.3815 19.0611 17.8575C18.6244 16.6707 15.252 14.1935 13.9765 14.1242Z"
              fill="#003764"/>
    </symbol>

    <symbol id="mail" viewBox="0 0 22 22">
        <path fill-rule="evenodd" clip-rule="evenodd"
              d="M0 10.9897C0 4.92997 4.92997 0 10.9897 0C17.0495 0 21.9794 4.92997 21.9794 10.9897V13.5323C21.9794 15.3868 20.4705 16.8955 18.616 16.8955C17.2083 16.8955 16.0005 16.0256 15.5 14.7956C14.416 16.0786 12.7968 16.8955 10.9896 16.8955C7.73338 16.8955 5.0843 14.2461 5.0843 10.9897C5.0843 7.73349 7.73338 5.08441 10.9896 5.08441C14.2457 5.08441 16.8947 7.73349 16.8947 10.9897V13.5323C16.8947 14.4815 17.6669 15.2537 18.616 15.2537C19.5653 15.2537 20.3376 14.4815 20.3376 13.5323V10.9897C20.3376 5.83525 16.1442 1.64179 10.9897 1.64179C5.83525 1.64179 1.64179 5.83525 1.64179 10.9897C1.64179 16.1444 5.83525 20.338 10.9897 20.338C11.4432 20.338 11.8106 20.7055 11.8106 21.1589C11.8106 21.6122 11.4432 21.9798 10.9897 21.9798C4.92997 21.9798 0 17.0497 0 10.9897ZM6.7262 10.9897C6.7262 13.3409 8.63878 15.2537 10.9897 15.2537C13.3405 15.2537 15.253 13.3409 15.253 10.9897C15.253 8.63878 13.3405 6.7262 10.9897 6.7262C8.63889 6.7262 6.7262 8.63878 6.7262 10.9897Z"
              fill="#003764"/>
    </symbol>

    <symbol id="message" viewBox="0 0 22 22">
        <path fill-rule="evenodd" clip-rule="evenodd"
              d="M11 0C4.92059 0 0 4.91975 0 11C0 12.9294 0.503204 14.8138 1.45876 16.4758L0.0414581 20.8771C-0.0574036 21.1839 0.0238342 21.5203 0.25177 21.7482C0.477524 21.974 0.813049 22.0582 1.12289 21.9585L5.52417 20.5412C7.18619 21.4968 9.0706 22 11 22C17.0794 22 22 17.0802 22 11C22 4.92059 17.0802 0 11 0ZM11 20.2812C9.25725 20.2812 7.55847 19.795 6.0873 18.875C5.87564 18.7428 5.61279 18.707 5.36824 18.7857L2.19107 19.8089L3.21426 16.6318C3.29181 16.3907 3.25908 16.1275 3.1248 15.9127C2.205 14.4415 1.71875 12.7428 1.71875 11C1.71875 5.88235 5.88235 1.71875 11 1.71875C16.1176 1.71875 20.2812 5.88235 20.2812 11C20.2812 16.1176 16.1176 20.2812 11 20.2812ZM11 12.0742C11.5933 12.0742 12.0742 11.5932 12.0742 11C12.0742 10.4067 11.5933 9.92578 11 9.92578C10.4067 9.92578 9.92578 10.4067 9.92578 11C9.92578 11.5932 10.4067 12.0742 11 12.0742ZM16.3711 11C16.3711 11.5932 15.8902 12.0742 15.2969 12.0742C14.7035 12.0742 14.2227 11.5932 14.2227 11C14.2227 10.4067 14.7035 9.92578 15.2969 9.92578C15.8902 9.92578 16.3711 10.4067 16.3711 11ZM6.70312 12.0742C7.29646 12.0742 7.77734 11.5932 7.77734 11C7.77734 10.4067 7.29646 9.92578 6.70312 9.92578C6.10995 9.92578 5.62891 10.4067 5.62891 11C5.62891 11.5932 6.10995 12.0742 6.70312 12.0742Z"
              fill="#003764"/>
    </symbol>

    <symbol id="location" viewBox="0 0 20 26">
        <path fill-rule="evenodd" clip-rule="evenodd"
              d="M0.105469 9.90201C0.105469 4.44201 4.54689 0 10.0063 0C15.4659 0 19.9078 4.44201 19.908 9.90201C19.908 13.8034 18.2745 17.7498 15.184 21.3148C12.876 23.9773 10.5883 25.4858 10.4921 25.5488C10.3445 25.6452 10.1754 25.6934 10.0064 25.6934C9.8373 25.6934 9.66819 25.6452 9.52073 25.5488C9.4244 25.4858 7.13707 23.9773 4.82902 21.3147C1.73884 17.7498 0.105469 13.8034 0.105469 9.90201ZM1.88062 9.90201C1.88062 17.1368 8.18535 22.3591 10.0063 23.716C11.8274 22.3591 18.1327 17.1368 18.1327 9.90201C18.1327 5.42083 14.4872 1.77515 10.0063 1.77515C5.52571 1.77515 1.88062 5.42083 1.88062 9.90201Z"
              fill="#003764"/>
        <path fill-rule="evenodd" clip-rule="evenodd"
              d="M6.07617 9.90034C6.07617 7.73323 7.83901 5.97028 10.0059 5.97028C12.1726 5.97028 13.9355 7.73335 13.9355 9.90034C13.9355 12.0668 12.1727 13.8294 10.0059 13.8294C7.83901 13.8294 6.07617 12.0668 6.07617 9.90034ZM7.85132 9.90034C7.85132 11.088 8.81783 12.0543 10.0059 12.0543C11.1938 12.0543 12.1603 11.088 12.1603 9.90034C12.1603 8.71205 11.1938 7.74542 10.0059 7.74542C8.81783 7.74542 7.85132 8.71205 7.85132 9.90034Z"
              fill="#003764"/>
    </symbol>

    <symbol id="expand" viewBox="0 0 22 22">
        <path d="M21.3671 0.153908C21.4675 0.254301 21.522 0.387418 21.521 0.528309L21.484 5.47638C21.4818 5.76869 21.2428 6.0089 20.9504 6.01115L20.5025 6.0158C20.3613 6.01692 20.2311 5.96535 20.1315 5.86579C20.0318 5.76611 19.983 5.63858 19.9841 5.49736L20.0165 2.58895L11.8448 10.7601L20.0165 18.9327L19.9841 16.0243C19.983 15.8831 20.0318 15.7556 20.1315 15.6559C20.2311 15.5563 20.3613 15.5048 20.5025 15.5059L20.9504 15.5105C21.2428 15.5128 21.4818 15.753 21.484 16.0453L21.521 20.9934C21.522 21.1343 21.4675 21.2674 21.3671 21.3678C21.2664 21.4684 21.1335 21.5227 20.9927 21.5217L16.0451 21.4843C15.7528 21.4822 15.5131 21.2425 15.5109 20.9501L15.5075 20.5009C15.5063 20.3598 15.5605 20.2269 15.66 20.1273C15.7597 20.0277 15.9011 19.965 16.0422 19.9662L18.937 19.9793L10.7813 11.8236L2.58895 20.0165L5.49736 19.9841C5.63858 19.983 5.76611 20.0318 5.86579 20.1315C5.96535 20.2311 6.01692 20.3613 6.0158 20.5025L6.01115 20.9504C6.0089 21.2428 5.76869 21.4818 5.47638 21.484L0.528309 21.521C0.387418 21.522 0.254301 21.4675 0.153908 21.3671C0.0532389 21.2664 -0.00104461 21.1335 1.52301e-05 20.9927L0.0373998 16.0451C0.0394877 15.7528 0.279198 15.5131 0.571624 15.5109L1.02077 15.5075C1.16189 15.5063 1.29478 15.5605 1.39434 15.66C1.49402 15.7597 1.55665 15.9011 1.55548 16.0422L1.54234 18.937L9.71786 10.7601L1.54234 2.58466L1.55548 5.47949C1.55665 5.62061 1.49402 5.76197 1.39434 5.86164C1.29478 5.9612 1.16189 6.01537 1.02077 6.0142L0.571624 6.01077C0.279198 6.00862 0.0394877 5.76891 0.0373998 5.47654L1.52301e-05 0.529029C-0.00104461 0.388138 0.0532389 0.255242 0.153908 0.154573C0.254301 0.0541797 0.387418 -0.000325066 0.528309 0.000734777L5.47638 0.0376777C5.76869 0.0399323 6.0089 0.278922 6.01115 0.571238L6.0158 1.01917C6.01692 1.16034 5.96535 1.29063 5.86579 1.3902C5.76611 1.48987 5.63858 1.53868 5.49736 1.53761L2.58895 1.50515L10.7813 9.69665L18.937 1.54234L16.0422 1.55548C15.9011 1.55665 15.7597 1.49402 15.66 1.39434C15.5605 1.29478 15.5063 1.16189 15.5075 1.02077L15.5109 0.571624C15.5131 0.279198 15.7528 0.0394877 16.0451 0.0373998L20.9927 1.52301e-05C21.1335 -0.00104461 21.2664 0.0532389 21.3671 0.153908Z"/>
    </symbol>

    <symbol id="adv1" viewBox="0 0 40 41">
        <path fill-rule="evenodd" clip-rule="evenodd" d="M20.0003 40.026H31.667C32.127 40.026 32.5003 39.6527 32.5003 39.1927V29.1927C32.5003 28.7327 32.127 28.3594 31.667 28.3594H20.0003C19.5403 28.3594 19.167 28.7327 19.167 29.1927V39.1927C19.167 39.6527 19.5403 40.026 20.0003 40.026ZM30.8337 38.3594H20.8337V30.026H30.8337V38.3594Z" fill="#003764"/>
        <path fill-rule="evenodd" clip-rule="evenodd" d="M14.1663 30.026H25.833C26.293 30.026 26.6663 29.6527 26.6663 29.1927V19.1927C26.6663 18.7327 26.293 18.3594 25.833 18.3594H14.1663C13.7063 18.3594 13.333 18.7327 13.333 19.1927V29.1927C13.333 29.6527 13.7063 30.026 14.1663 30.026ZM24.9997 28.3594H14.9997V20.026H24.9997V28.3594Z" fill="#C32032"/>
        <path fill-rule="evenodd" clip-rule="evenodd" d="M8.33333 40.026H20C20.46 40.026 20.8333 39.6527 20.8333 39.1927V29.1927C20.8333 28.7327 20.46 28.3594 20 28.3594H8.33333C7.87333 28.3594 7.5 28.7327 7.5 29.1927V39.1927C7.5 39.6527 7.87333 40.026 8.33333 40.026ZM19.1667 38.3594H9.16667V30.026H19.1667V38.3594Z" fill="#C32032"/>
        <path d="M20.0003 22.526C19.5403 22.526 19.167 22.1527 19.167 21.6927V19.1927C19.167 18.7327 19.5403 18.3594 20.0003 18.3594C20.4603 18.3594 20.8337 18.7327 20.8337 19.1927V21.6927C20.8337 22.1527 20.4603 22.526 20.0003 22.526Z" fill="#003764"/>
        <path d="M14.1663 32.526C13.7063 32.526 13.333 32.1527 13.333 31.6927V29.1927C13.333 28.7327 13.7063 28.3594 14.1663 28.3594C14.6263 28.3594 14.9997 28.7327 14.9997 29.1927V31.6927C14.9997 32.1527 14.6263 32.526 14.1663 32.526Z" fill="#003764"/>
        <path d="M25.8333 32.526C25.3733 32.526 25 32.1527 25 31.6927V29.1927C25 28.7327 25.3733 28.3594 25.8333 28.3594C26.2933 28.3594 26.6667 28.7327 26.6667 29.1927V31.6927C26.6667 32.1527 26.2933 32.526 25.8333 32.526Z" fill="#003764"/>
        <path fill-rule="evenodd" clip-rule="evenodd" d="M0.323333 14.8527C0.471667 14.966 0.651667 15.026 0.833333 15.026C0.903333 15.026 0.975 15.0177 1.04333 14.9994L39.3767 4.99938C39.745 4.90271 40 4.57271 40 4.19271V0.85938C40 0.601047 39.8817 0.356047 39.6767 0.19938C39.4717 0.0427138 39.2 -0.0139528 38.9567 0.0527138L0.623333 10.0527C0.255 10.1494 0 10.4794 0 10.8594V14.1927C0 14.451 0.118333 14.6944 0.323333 14.8527ZM1.66667 13.1144V11.5027L38.3333 1.93771V3.54938L1.66667 13.1144Z" fill="#003764"/>
        <path d="M35.833 40.026H4.16634C3.70634 40.026 3.33301 39.6527 3.33301 39.1927V13.3227C3.33301 12.8627 3.70634 12.4894 4.16634 12.4894C4.62634 12.4894 4.99967 12.8627 4.99967 13.3227V38.3594H34.9997V5.0627C34.9997 4.6027 35.373 4.22937 35.833 4.22937C36.293 4.22937 36.6663 4.6027 36.6663 5.0627V39.1927C36.6663 39.6527 36.293 40.026 35.833 40.026Z" fill="#003764"/>
        <path fill-rule="evenodd" clip-rule="evenodd" d="M6.99033 9.78105C7.13866 9.89438 7.31866 9.95438 7.50033 9.95438C7.57033 9.95438 7.64199 9.94438 7.71033 9.92772L11.0437 9.05772C11.412 8.96105 11.667 8.63105 11.667 8.25105V2.52605C11.667 2.23772 11.517 1.96938 11.2703 1.81772C11.0253 1.66605 10.717 1.65105 10.4603 1.78105L7.12699 3.44772C6.84533 3.58938 6.66699 3.87772 6.66699 4.19272V9.12105C6.66699 9.37772 6.78533 9.62105 6.99033 9.78105ZM8.33366 8.04105V4.70772L10.0003 3.87438V7.60605L8.33366 8.04105Z" fill="#003764"/>
    </symbol>

    <symbol id="adv2" viewBox="0 0 36 37">
        <path fill-rule="evenodd" clip-rule="evenodd" d="M17.25 28.5703H32.25C32.664 28.5703 33 28.2343 33 27.8203V12.8203C33 12.4063 32.664 12.0703 32.25 12.0703H17.25C16.836 12.0703 16.5 12.4063 16.5 12.8203V27.8203C16.5 28.2343 16.836 28.5703 17.25 28.5703ZM31.5 27.0703H18V13.5703H31.5V27.0703Z" fill="#003764"/>
        <path fill-rule="evenodd" clip-rule="evenodd" d="M21.4414 22.8171H25.9414C26.3554 22.8171 26.6914 22.4811 26.6914 22.0671V16.0671C26.6914 15.6531 26.3554 15.3171 25.9414 15.3171H21.4414C21.0274 15.3171 20.6914 15.6531 20.6914 16.0671V22.0671C20.6914 22.4811 21.0274 22.8171 21.4414 22.8171ZM25.1914 21.3171H22.1914V16.8171H25.1914V21.3171Z" fill="#C32032"/>
        <path fill-rule="evenodd" clip-rule="evenodd" d="M7.63281 10.8171H12.1328C12.5468 10.8171 12.8828 10.4811 12.8828 10.0671V4.06708C12.8828 3.65308 12.5468 3.31708 12.1328 3.31708H7.63281C7.21881 3.31708 6.88281 3.65308 6.88281 4.06708V10.0671C6.88281 10.4811 7.21881 10.8171 7.63281 10.8171ZM11.3828 9.31708H8.38281V4.81708H11.3828V9.31708Z" fill="#C32032"/>
        <path fill-rule="evenodd" clip-rule="evenodd" d="M29.25 36.1406H35.25C35.664 36.1406 36 35.8046 36 35.3906V27.8906C36 27.4766 35.664 27.1406 35.25 27.1406H0.75C0.336 27.1406 0 27.4766 0 27.8906V35.3906C0 35.8046 0.336 36.1406 0.75 36.1406H6.75C7.164 36.1406 7.5 35.8046 7.5 35.3906V33.1406H28.5V35.3906C28.5 35.8046 28.836 36.1406 29.25 36.1406ZM34.5 34.6406H30V32.3906C30 31.9766 29.664 31.6406 29.25 31.6406H6.75C6.336 31.6406 6 31.9766 6 32.3906V34.6406H1.5V28.6406H34.5V34.6406Z" fill="#003764"/>
        <path d="M3.75 28.5C3.336 28.5 3 28.164 3 27.75V0.75C3 0.336 3.336 0 3.75 0H20.25C20.664 0 21 0.336 21 0.75V12.75C21 13.164 20.664 13.5 20.25 13.5C19.836 13.5 19.5 13.164 19.5 12.75V1.5H4.5V27.75C4.5 28.164 4.164 28.5 3.75 28.5Z" fill="#003764"/>
    </symbol>

    <symbol id="adv3" viewBox="0 0 34 34">
        <path fill-rule="evenodd" clip-rule="evenodd" d="M3.54167 34H30.4583C32.4119 34 34 32.4105 34 30.4583V3.54167C34 1.5895 32.4119 0 30.4583 0H3.54167C1.58808 0 0 1.5895 0 3.54167V30.4583C0 32.4105 1.58808 34 3.54167 34ZM1.41667 3.54167C1.41667 2.37008 2.37008 1.41667 3.54167 1.41667H30.4583C31.6299 1.41667 32.5833 2.37008 32.5833 3.54167V30.4583C32.5833 31.6299 31.6299 32.5833 30.4583 32.5833H3.54167C2.37008 32.5833 1.41667 31.6299 1.41667 30.4583V3.54167Z" fill="#003764"/>
        <path d="M27.625 17C27.234 17 26.9167 16.6827 26.9167 16.2917V7.08335H17.7083C17.3173 7.08335 17 6.76602 17 6.37502C17 5.98402 17.3173 5.66669 17.7083 5.66669H27.625C28.016 5.66669 28.3333 5.98402 28.3333 6.37502V16.2917C28.3333 16.6827 28.016 17 27.625 17Z" fill="#C32032"/>
        <path d="M14.8747 19.8333C14.6934 19.8333 14.512 19.7639 14.3732 19.6265C14.097 19.3502 14.097 18.9012 14.3732 18.6249L27.1232 5.87491C27.3995 5.59866 27.8485 5.59866 28.1248 5.87491C28.401 6.15116 28.401 6.60025 28.1248 6.8765L15.3748 19.6265C15.2374 19.7639 15.056 19.8333 14.8747 19.8333Z" fill="#C32032"/>
        <path d="M12.0417 34C11.6507 34 11.3333 33.6827 11.3333 33.2917V22.6667H0.708333C0.317333 22.6667 0 22.3493 0 21.9583C0 21.5673 0.317333 21.25 0.708333 21.25H12.0417C12.4327 21.25 12.75 21.5673 12.75 21.9583V33.2917C12.75 33.6827 12.4327 34 12.0417 34Z" fill="#003764"/>
    </symbol>

</svg>