<svg xmlns="http://www.w3.org/2000/svg" display="none">
    <symbol id="dots" viewBox="0 0 2 14">
        <circle cx="1" cy="1" r="1"/>
        <circle cx="1" cy="7" r="1"/>
        <circle cx="1" cy="13" r="1"/>
    </symbol>

    <symbol id="icon-arrow" viewBox="0 0 17 17">
        <path d="M16.1953 13.7856L15.0925 13.7845C14.8769 13.7844 14.6754 13.7007 14.5217 13.5469C14.3608 13.386 14.263 13.1609 14.263 12.955L14.2338 5.84247L14.2289 4.65307L2.1426 16.7433C1.81539 17.0706 1.34526 17.0857 1.04392 16.7842L0.262866 16.0029C-0.0670879 15.6729 -0.0883883 15.1087 0.210106 14.8101L12.3443 2.67197L4.00284 2.69298C3.78225 2.69273 3.59592 2.61763 3.44651 2.46817C3.295 2.31661 3.21549 2.12232 3.21533 1.90361L3.21725 0.804625C3.21683 0.360261 3.57855 -0.000414515 4.0233 3.57552e-07L16.173 0.0143355C16.3878 0.0145768 16.5901 0.0990922 16.7486 0.257645C16.9026 0.411647 16.9865 0.613427 16.9868 0.828296L17 12.9807C17.0007 13.4248 16.6394 13.7862 16.1953 13.7856Z"/>
    </symbol>

    <symbol id="arrow-right" viewBox="0 0 12 10">
        <path d="M6.54966 9.80757L6.15649 9.41361C6.03288 9.28992 5.96449 9.12457 5.96449 8.94857C5.96449 8.77237 6.03288 8.59206 6.15649 8.46837L8.68273 5.92129H0.656683C0.294732 5.92129 0 5.6565 0 5.29383V4.73638C0 4.37381 0.294732 4.04205 0.656683 4.04205H8.71132L6.15649 1.50005C6.03288 1.37616 5.96449 1.2203 5.96449 1.0441C5.96449 0.868095 6.03288 0.707344 6.15649 0.583554L6.54966 0.191748C6.80556 -0.064632 7.22185 -0.0635564 7.47776 0.192824L11.8084 4.53369C11.9317 4.65728 12 4.82312 12 5.00059V5.00244C12 5.17855 11.9317 5.34399 11.8084 5.46759L7.47785 9.80757C7.22205 10.0641 6.80556 10.0641 6.54966 9.80757Z"/>
    </symbol>

    <symbol id="icon1" viewBox="0 0 44 45">
        <path d="M42.2083 39.3396C40.0765 39.3396 38.9694 40.5479 38.0795 41.5164C37.274 42.3931 36.637 43.0862 35.3313 43.0862C34.0237 43.0862 33.3868 42.3931 32.5813 41.5164C31.6934 40.546 30.5843 39.3396 28.4543 39.3396C26.3244 39.3396 25.2191 40.5479 24.3293 41.5183C23.5257 42.3932 22.8924 43.0863 21.5886 43.0863C20.2848 43.0863 19.6497 42.3932 18.8442 41.5165C17.9582 40.5479 16.8511 39.3396 14.723 39.3396C12.5949 39.3396 11.4915 40.5479 10.6017 41.5164C9.79805 42.3931 9.16484 43.0862 7.86101 43.0862C6.55719 43.0862 5.92213 42.3931 5.11664 41.5164C4.23053 40.5479 3.1234 39.3396 0.995281 39.3396C0.478246 39.3396 0.0585938 39.7593 0.0585938 40.2763C0.0585938 40.7933 0.478246 41.213 0.995281 41.213C2.29911 41.213 2.93232 41.9061 3.73597 42.7809C4.62392 43.7513 5.73105 44.9595 7.86101 44.9595C9.99097 44.9595 11.0963 43.7513 11.9842 42.7809C12.786 41.906 13.4211 41.2129 14.723 41.2129C16.0268 41.2129 16.66 41.906 17.4637 42.7809C18.3516 43.7513 19.4587 44.9595 21.5887 44.9595C23.7168 44.9595 24.8239 43.7513 25.71 42.7828C26.5155 41.9061 27.1505 41.213 28.4543 41.213C29.76 41.213 30.397 41.9061 31.2025 42.7828C32.0924 43.7513 33.1995 44.9595 35.3313 44.9595C37.4613 44.9595 38.5703 43.7531 39.4582 42.7828C40.2637 41.9061 40.9007 41.213 42.2082 41.213C42.7252 41.213 43.1449 40.7933 43.1449 40.2763C43.1449 39.7593 42.7253 39.3396 42.2083 39.3396Z" fill="#003764"/>
        <path d="M42.2082 35.593C40.0764 35.593 38.9693 36.8013 38.0794 37.7698C37.2739 38.6466 36.6369 39.3397 35.3312 39.3397C34.0236 39.3397 33.3867 38.6466 32.5812 37.7699C31.6933 36.7995 30.5843 35.5931 28.4543 35.5931C26.3244 35.5931 25.2191 36.8014 24.3293 37.7718C23.5256 38.6466 22.8924 39.3397 21.5886 39.3397C20.2848 39.3397 19.6497 38.6466 18.8442 37.7699C17.9581 36.8014 16.851 35.5931 14.723 35.5931C12.5949 35.5931 11.4915 36.8014 10.6017 37.7699C9.79796 38.6466 9.16475 39.3397 7.86093 39.3397C6.5571 39.3397 5.92204 38.6466 5.11655 37.7699C4.23044 36.8014 3.12331 35.5931 0.995281 35.5931C0.478246 35.5931 0.0585938 36.0128 0.0585938 36.5298C0.0585938 37.0468 0.478246 37.4665 0.995281 37.4665C2.29911 37.4665 2.93232 38.1596 3.73597 39.0344C4.62392 40.0049 5.73105 41.2131 7.86101 41.2131C9.99097 41.2131 11.0963 40.0049 11.9842 39.0344C12.786 38.1596 13.4211 37.4665 14.723 37.4665C16.0268 37.4665 16.66 38.1596 17.4637 39.0344C18.3516 40.0049 19.4587 41.2131 21.5887 41.2131C23.7168 41.2131 24.8239 40.0049 25.71 39.0364C26.5155 38.1597 27.1505 37.4666 28.4543 37.4666C29.76 37.4666 30.397 38.1597 31.2025 39.0364C32.0923 40.0049 33.1994 41.2131 35.3313 41.2131C37.4613 41.2131 38.5703 40.0067 39.4582 39.0364C40.2637 38.1597 40.9007 37.4666 42.2082 37.4666C42.7252 37.4666 43.1449 37.0469 43.1449 36.5299C43.1448 36.0127 42.7252 35.593 42.2082 35.593Z" fill="#003764"/>
        <path d="M39.3046 21.131C39.1772 20.8763 38.9431 20.6908 38.6658 20.629L21.8059 16.8823C21.6711 16.8524 21.5343 16.8524 21.3995 16.8823L4.53962 20.629C4.26046 20.6908 4.02636 20.8763 3.90079 21.131C3.77715 21.3857 3.7753 21.6855 3.89517 21.9421L11.3884 37.8653C11.6076 38.3355 12.1696 38.5359 12.6342 38.3149C13.1025 38.0939 13.303 37.5355 13.0819 37.0672L6.08888 22.2025L21.6018 18.7556L37.1147 22.2025L30.1216 37.0672C29.9006 37.5355 30.101 38.0939 30.5694 38.3149C30.6968 38.3748 30.8354 38.4029 30.9684 38.4029C31.3206 38.4029 31.6559 38.2044 31.817 37.8653L39.3102 21.9421C39.4301 21.6855 39.4283 21.3857 39.3046 21.131Z" fill="#003764"/>
        <path d="M35.6403 20.4623L34.1341 10.6705C33.8456 8.7972 32.4762 7.2929 30.6423 6.83952C28.3999 6.28315 25.0092 5.62 21.6016 5.62C18.1941 5.62 14.8033 6.28315 12.561 6.84137C10.7289 7.29474 9.3576 8.79895 9.06914 10.6723L7.56299 20.4641C7.48432 20.9755 7.83653 21.4532 8.34601 21.5319C8.87051 21.6124 9.33512 21.2603 9.4138 20.7489L10.9199 10.9571C11.0942 9.83311 11.9147 8.93014 13.0106 8.65854C15.1536 8.12649 18.3832 7.49337 21.6016 7.49337C24.82 7.49337 28.0496 8.12658 30.1927 8.65854C31.2886 8.93014 32.1091 9.83127 32.2833 10.9571L33.7894 20.7489C33.8607 21.2116 34.2597 21.5432 34.713 21.5432C34.7598 21.5432 34.8085 21.5394 34.8572 21.5301C35.3667 21.4514 35.7189 20.9737 35.6403 20.4623Z" fill="#003764"/>
        <path d="M21.6017 0C21.0847 0 20.665 0.419652 20.665 0.936687V6.55664C20.665 7.07367 21.0847 7.49332 21.6017 7.49332C22.1188 7.49332 22.5384 7.07367 22.5384 6.55664V0.936687C22.5384 0.419652 22.1188 0 21.6017 0Z" fill="#003764"/>
        <path d="M25.3484 0H17.8551C17.3381 0 16.9185 0.419652 16.9185 0.936687C16.9185 1.45372 17.3381 1.87337 17.8551 1.87337H25.3484C25.8654 1.87337 26.2851 1.45372 26.2851 0.936687C26.2851 0.419652 25.8654 0 25.3484 0Z" fill="#003764"/>
        <path d="M31.3261 15.0577C31.135 14.979 26.5697 13.1132 21.6017 13.1132C16.6337 13.1132 12.0684 14.979 11.8773 15.0577C11.3996 15.2562 11.173 15.8033 11.3697 16.281C11.5682 16.7605 12.1209 16.9872 12.5911 16.7886C12.636 16.7717 17.0178 14.9864 21.6017 14.9864C26.1856 14.9864 30.5674 16.7717 30.6123 16.7886C30.7266 16.8373 30.8502 16.8598 30.9682 16.8598C31.3354 16.8598 31.6857 16.6425 31.8337 16.281C32.0305 15.8014 31.8037 15.2544 31.3261 15.0577Z" fill="#C32032"/>
        <path d="M30.5412 11.3916C30.4138 11.3073 27.3529 9.36658 21.6017 9.36658C15.8506 9.36658 12.7896 11.3073 12.6622 11.3916C12.2295 11.6708 12.1077 12.2477 12.385 12.6823C12.6642 13.1132 13.2374 13.2406 13.6794 12.9652C13.7057 12.9483 16.4501 11.2399 21.6017 11.2399C26.7534 11.2399 29.4978 12.9483 29.5221 12.9614C29.6794 13.0644 29.8555 13.1132 30.0317 13.1132C30.337 13.1132 30.6386 12.9633 30.8166 12.686C31.0976 12.2533 30.974 11.6726 30.5412 11.3916Z" fill="#C32032"/>
        <path d="M21.6017 20.6064C21.0847 20.6064 20.665 21.0261 20.665 21.5431V40.2763C20.665 40.7933 21.0847 41.213 21.6017 41.213C22.1188 41.213 22.5384 40.7933 22.5384 40.2763V21.543C22.5384 21.026 22.1188 20.6064 21.6017 20.6064Z" fill="#003764"/>
    </symbol>
    <symbol id="icon2" viewBox="0 0 48 30">
        <path fill-rule="evenodd" clip-rule="evenodd" d="M4 25C4 22.244 6.24194 20 8.99997 20C11.758 20 13.9999 22.2441 13.9999 25.0001C13.9999 27.756 11.758 30 8.99997 30C6.24194 30 4 27.7559 4 25ZM5.99997 25.0001C5.99997 26.6541 7.34594 28.0001 8.99997 28.0001C10.654 28.0001 12 26.6541 12 25.0001C12 23.346 10.654 22.0001 8.99997 22.0001C7.34594 22.0001 5.99997 23.346 5.99997 25.0001Z" fill="#003764"/>
        <path fill-rule="evenodd" clip-rule="evenodd" d="M34 25C34 22.244 36.2419 20 39 20C41.758 20 43.9999 22.2441 43.9999 25.0001C43.9999 27.756 41.758 30 39 30C36.2419 30 34 27.7559 34 25ZM36 25.0001C36 26.6541 37.3459 28.0001 39 28.0001C40.654 28.0001 42 26.6541 42 25.0001C42 23.346 40.654 22.0001 39 22.0001C37.3459 22.0001 36 23.346 36 25.0001Z" fill="#003764"/>
        <path d="M31 16H29C28.448 16 28 16.448 28 17C28 17.552 28.4479 18 28.9999 18H30.9999C31.5519 18 31.9999 17.5519 31.9999 16.9999C31.9999 16.4479 31.552 16 31 16Z" fill="#C32032"/>
        <path d="M45.728 12.65C44.276 12.2859 42.9519 11.5359 41.898 10.4799L32.88 1.46391C31.934 0.520031 30.68 0 29.344 0H4.99997C2.24203 0 0 2.244 0 4.99997V21C0 23.756 2.24203 26 4.99997 26C5.55197 26 6 25.5519 6 24.9999C6 24.4479 5.55197 24 4.99997 24C3.34594 24 1.99997 22.654 1.99997 21V4.99997C1.99997 3.34594 3.34594 1.99997 4.99997 1.99997H29.3439C30.1319 1.99997 30.9059 2.31994 31.4639 2.88L40.4819 11.896C41.7919 13.21 43.4399 14.142 45.2419 14.592C45.6878 14.704 45.9998 15.102 45.9998 15.562V21C45.9998 22.654 44.6539 24 42.9998 24C42.4478 24 41.9998 24.448 41.9998 25C41.9998 25.552 42.4478 26.0001 42.9998 26.0001C45.758 26 48 23.756 48 21V15.562C48 14.182 47.064 12.986 45.728 12.65Z" fill="#003764"/>
        <path d="M35 24H13C12.448 24 12 24.448 12 25C12 25.552 12.448 26.0001 13 26.0001H35.0001C35.5521 26.0001 36.0001 25.552 36.0001 25C36.0001 24.448 35.552 24 35 24Z" fill="#003764"/>
        <path d="M37 11.9999H26V4.99991C26 4.44791 25.5519 3.99988 24.9999 3.99988C24.4479 3.99988 24 4.44791 24 4.99991V12.9999C24 13.5519 24.448 13.9999 25 13.9999H37C37.552 13.9999 38.0001 13.5519 38.0001 12.9999C38.0001 12.4479 37.552 11.9999 37 11.9999Z" fill="#003764"/>
        <path d="M19 6H7.00003C6.44803 6 6 6.44803 6 7.00003C6 7.55203 6.44803 8.00006 7.00003 8.00006H19C19.552 8.00006 20.0001 7.55203 20.0001 7.00003C20.0001 6.44803 19.552 6 19 6Z" fill="#C32032"/>
        <path d="M19 12H7.00003C6.44803 12 6 12.448 6 13C6 13.552 6.44803 14.0001 7.00003 14.0001H19C19.552 14.0001 20.0001 13.552 20.0001 13C20.0001 12.448 19.552 12 19 12Z" fill="#C32032"/>
    </symbol>

    <symbol id="icon3" viewBox="0 0 46 40">
        <path d="M32.1497 12.9633L26.4609 0.637387C26.2693 0.225921 25.8161 0.00778731 25.3705 0.115876L21.5778 1.06405C21.1227 1.17783 20.8193 1.61019 20.8649 2.07854L21.813 11.5601C21.8642 12.0816 22.3269 12.4608 22.8503 12.4096C23.3718 12.3584 23.751 11.8937 23.6998 11.3723L22.8332 2.70628L25.0689 2.1469L30.426 13.7598C30.5872 14.1087 30.9305 14.3116 31.2889 14.3116C31.4216 14.3116 31.5581 14.2832 31.6852 14.2225C32.1611 14.0025 32.3697 13.4375 32.1497 12.9633Z" fill="#003764"/>
        <path d="M42.001 18.1478C41.5952 18.0188 41.1629 18.1838 40.9334 18.5214C40.7684 18.622 39.898 19.0524 36.9777 19.0524C36.4543 19.0524 36.0295 19.4772 36.0295 20.0005C36.0295 20.5239 36.4543 20.9487 36.9777 20.9487C40.3892 20.9487 42.2893 20.4064 42.623 19.3349C42.7804 18.8362 42.5016 18.3033 42.001 18.1478Z" fill="#C32032"/>
        <path fill-rule="evenodd" clip-rule="evenodd" d="M31.581 19.0979C31.8276 19.1776 32.0304 19.3539 32.1423 19.5872C32.2561 19.8204 32.2675 20.0896 32.1765 20.3324L26.4876 35.5028C26.3472 35.8783 25.9888 36.1191 25.6001 36.1191C25.5375 36.1191 25.4768 36.1134 25.4124 36.1001L20.6717 35.152C20.1881 35.0552 19.8582 34.602 19.9169 34.1109L21.8132 17.9924C21.8701 17.5164 22.2759 17.1561 22.7557 17.1561C25.5603 17.1561 31.3364 19.0183 31.581 19.0979ZM21.9023 33.4642L24.9952 34.0824L30.0488 20.6093C28.545 20.156 25.5831 19.3179 23.5938 19.1036L21.9023 33.4642Z" fill="#003764"/>
        <path d="M29.6145 12.4399C22.8295 10.8091 15.0054 9.86471 12.9422 9.63147L9.38098 2.50898C9.18187 2.11262 8.73431 1.90409 8.30391 2.01404L4.51129 2.96222C4.08844 3.06844 3.79262 3.44578 3.79262 3.88196V9.2864C2.8824 9.1176 1.70098 9.06453 0.883733 9.63911C0.479733 9.92169 0 10.4697 0 11.4671C0 11.8956 0 13.1567 3.36027 15.4569L1.9456 19.6989C1.84702 19.9891 1.89627 20.3076 2.07458 20.5541C2.2528 20.8026 2.5392 20.9485 2.84444 20.9485H7.58516C7.94356 20.9485 8.27164 20.7456 8.4328 20.4233L9.28996 18.7091C12.1382 20.0061 16.3802 21.6502 21.5988 22.8203C22.1147 22.9416 22.6172 22.6136 22.7309 22.1035C22.8466 21.5933 22.5261 21.0852 22.0141 20.9714C17.6526 19.9929 13.1224 18.4436 9.26151 16.6042C8.79316 16.3823 8.23751 16.5757 8.00613 17.0365L6.9992 19.0523H4.16044L5.38738 15.3697C5.52391 14.9582 5.36649 14.5068 5.0024 14.2717C2.52018 12.6732 1.91902 11.7022 1.89627 11.4671C1.89627 11.2452 1.95316 11.2036 1.97404 11.1884C2.33627 10.9362 3.55369 11.1012 4.42213 11.4102C4.71227 11.5164 5.03653 11.4728 5.28684 11.2926C5.53902 11.1163 5.68889 10.828 5.68889 10.5189V4.62151L8.02516 4.03742L11.4783 10.9419C11.6224 11.232 11.9068 11.4292 12.2292 11.4634C12.3184 11.4729 21.4434 12.4267 29.184 14.2889C36.1604 15.8552 43.6148 19.1756 43.6148 23.7932C43.6148 23.8823 43.5978 23.9183 43.5257 23.9771C42.5131 24.802 38.1838 24.4284 30.665 22.8696C30.153 22.7615 29.6524 23.0915 29.5443 23.6053C29.438 24.1173 29.7661 24.6198 30.28 24.726C35.3279 25.7709 38.8133 26.2829 41.1685 26.2829C42.9169 26.2829 44.0433 26.0023 44.7241 25.4485C45.238 25.0276 45.511 24.4568 45.511 23.7931C45.5111 16.5739 33.3331 13.2762 29.6145 12.4399Z" fill="#003764"/>
        <path d="M21.8074 38.0153H0.948178C0.4248 38.0153 0 38.4401 0 38.9634C0 39.4868 0.4248 39.9116 0.948178 39.9116H21.8075C22.3308 39.9116 22.7556 39.4868 22.7556 38.9634C22.7556 38.4401 22.3308 38.0153 21.8074 38.0153Z" fill="#C32032"/>
    </symbol>

    <symbol id="icon4" viewBox="0 0 32 44">
        <path d="M8.87164 33.1664C8.47786 32.8515 7.90286 32.9174 7.5842 33.3093L0.258593 42.4662C-0.0563775 42.8618 0.00766388 43.4368 0.401441 43.7536C0.569957 43.8873 0.773241 43.9532 0.972834 43.9532C1.24025 43.9532 1.50757 43.836 1.68888 43.6108L9.0144 34.4538C9.32946 34.0583 9.26542 33.4832 8.87164 33.1664Z" fill="#003764"/>
        <path d="M30.9895 42.4644L23.664 33.3074C23.349 32.9155 22.7721 32.8477 22.3765 33.1646C21.9828 33.4814 21.9187 34.0564 22.2337 34.452L29.5592 43.609C29.7405 43.836 30.006 43.9533 30.2753 43.9533C30.4767 43.9533 30.6781 43.8874 30.8467 43.7518C31.2403 43.435 31.3045 42.86 30.9895 42.4644Z" fill="#003764"/>
        <path d="M28.4438 40.2905H2.80439C2.29893 40.2905 1.88867 40.7008 1.88867 41.2063C1.88867 41.7117 2.29893 42.122 2.80439 42.122H28.4439C28.9493 42.122 29.3596 41.7117 29.3596 41.2063C29.3595 40.7008 28.9492 40.2905 28.4438 40.2905Z" fill="#003764"/>
        <path d="M25.6967 36.6278H5.55146C5.046 36.6278 4.63574 37.0381 4.63574 37.5435C4.63574 38.049 5.046 38.4593 5.55146 38.4593H25.6968C26.2022 38.4593 26.6125 38.049 26.6125 37.5435C26.6124 37.038 26.2021 36.6278 25.6967 36.6278Z" fill="#003764"/>
        <path fill-rule="evenodd" clip-rule="evenodd" d="M29.6451 6.05457L30.9747 29.9652C31.0461 31.2343 30.6029 32.443 29.7293 33.3661C28.8558 34.2873 27.6745 34.7964 26.4036 34.7964H4.84448C3.57352 34.7964 2.39228 34.2873 1.5187 33.3643C0.645132 32.4412 0.201908 31.2325 0.273332 29.9634L1.60292 6.05457C1.78972 2.65918 4.60093 0 8.00182 0H23.2462C26.6471 0 29.4583 2.65918 29.6451 6.05457ZM26.4018 32.965C27.1655 32.965 27.8742 32.6591 28.398 32.1061C28.9217 31.553 29.1873 30.8278 29.1453 30.066L27.8175 6.15535C27.6838 3.73062 25.6747 1.83145 23.2463 1.83145H8.00182C5.5734 1.83145 3.56434 3.73062 3.43067 6.15535L2.10109 30.066C2.05894 30.8278 2.32454 31.553 2.84829 32.1061C3.37384 32.6591 4.08259 32.965 4.84448 32.965H26.4018Z" fill="#003764"/>
        <path fill-rule="evenodd" clip-rule="evenodd" d="M14 5C14 3.89731 14.8973 3 16 3C17.1027 3 18 3.89737 18 5C18 6.10269 17.1027 7 16 7C14.8973 7 14 6.10269 14 5ZM15.3333 5C15.3333 5.368 15.632 5.66669 16 5.66669C16.368 5.66669 16.6667 5.36806 16.6667 5.00006C16.6667 4.63206 16.368 4.33337 16 4.33337C15.632 4.33337 15.3333 4.632 15.3333 5Z" fill="#003764"/>
        <path fill-rule="evenodd" clip-rule="evenodd" d="M13.9909 8.00517C14.2491 7.97817 14.5055 8.0574 14.6982 8.23021C14.8891 8.39938 15 8.64424 15 8.89982V15.1999C15 15.6589 14.6528 16.0442 14.1909 16.0946L6.00909 16.9946C5.97637 16.9982 5.94364 17 5.90912 17C5.68548 17 5.47097 16.919 5.30367 16.7714C5.11088 16.6005 5 16.3556 5 16.1V9.79987C5 9.34086 5.34722 8.95559 5.80906 8.90522L13.9909 8.00517ZM6.81816 15.0956L13.1818 14.3954V9.90602L6.81816 10.6063V15.0956Z" fill="#003764"/>
        <path fill-rule="evenodd" clip-rule="evenodd" d="M17.011 8.00459L25.1928 8.90451C25.6528 8.95665 26.0001 9.34186 26 9.80089V16.1002C26 16.3557 25.889 16.6004 25.6963 16.7715C25.529 16.919 25.3145 17 25.0909 17C25.0564 17 25.0236 16.9982 24.9909 16.9946L16.8091 16.0947C16.3473 16.0442 16 15.6591 16 15.2002V8.90088C16 8.64534 16.111 8.4006 16.3037 8.22959C16.4965 8.05859 16.7528 7.97937 17.011 8.00459ZM17.8182 14.3938L24.1819 15.0939V10.6071L17.8182 9.90694V14.3938Z" fill="#003764"/>
        <path d="M16.3181 25.9582C15.9866 25.5717 8.11351 16.4825 1.88862 16.4825C1.38316 16.4825 0.9729 16.8928 0.9729 17.3983C0.9729 17.9037 1.38316 18.3139 1.88862 18.3139C7.27471 18.3139 14.853 27.0624 14.93 27.1522C15.1113 27.3628 15.3658 27.4709 15.624 27.4709C15.8365 27.4709 16.0471 27.3976 16.2192 27.2493C16.6038 26.9197 16.6478 26.3409 16.3181 25.9582Z" fill="#003764"/>
        <path d="M29.3593 16.4825C23.1345 16.4825 15.2613 25.5717 14.928 25.9582C14.6001 26.341 14.6441 26.9197 15.0269 27.2493C15.2009 27.3976 15.4115 27.4709 15.6239 27.4709C15.8822 27.4709 16.1386 27.3628 16.318 27.1522C18.4278 24.6926 24.8853 18.3139 29.3593 18.3139C29.8648 18.3139 30.2751 17.9036 30.2751 17.3982C30.2751 16.8927 29.8648 16.4825 29.3593 16.4825Z" fill="#003764"/>
        <path fill-rule="evenodd" clip-rule="evenodd" d="M3.71997 28.3865C3.71997 26.8719 4.95247 25.6394 6.46705 25.6394C7.98164 25.6394 9.21414 26.8719 9.21414 28.3865C9.21414 29.9011 7.98164 31.1336 6.46705 31.1336C4.95247 31.1336 3.71997 29.9011 3.71997 28.3865ZM5.55133 28.3864C5.55133 28.8919 5.96159 29.3021 6.46705 29.3021C6.97252 29.3021 7.38278 28.8919 7.38278 28.3865C7.38278 27.881 6.97252 27.4708 6.46705 27.4708C5.96159 27.4708 5.55133 27.8809 5.55133 28.3864Z" fill="#C32032"/>
        <path fill-rule="evenodd" clip-rule="evenodd" d="M22.0339 28.3865C22.0339 26.8719 23.2664 25.6394 24.781 25.6394C26.2955 25.6394 27.5281 26.8719 27.5281 28.3865C27.5281 29.9011 26.2956 31.1336 24.781 31.1336C23.2664 31.1336 22.0339 29.9011 22.0339 28.3865ZM23.8653 28.3864C23.8653 28.8919 24.2756 29.3021 24.781 29.3021C25.2865 29.3021 25.6967 28.8919 25.6967 28.3865C25.6967 27.881 25.2865 27.4708 24.781 27.4708C24.2756 27.4708 23.8653 27.8809 23.8653 28.3864Z" fill="#C32032"/>
    </symbol>

    <symbol id="icon5" viewBox="0 0 41 26">
        <path fill-rule="evenodd" clip-rule="evenodd" d="M28 7C28 5.89731 28.8973 5 30 5C31.1027 5 32 5.89737 32 7C32 8.10269 31.1027 9 30 9C28.8973 9 28 8.10269 28 7ZM29.3333 7C29.3333 7.368 29.632 7.66669 30 7.66669C30.368 7.66669 30.6667 7.36806 30.6667 7.00006C30.6667 6.63206 30.368 6.33337 30 6.33337C29.632 6.33337 29.3333 6.632 29.3333 7Z" fill="#003764"/>
        <path fill-rule="evenodd" clip-rule="evenodd" d="M28 13C28 11.8973 28.8973 11 30 11C31.1027 11 32 11.8974 32 13C32 14.1027 31.1027 15 30 15C28.8973 15 28 14.1027 28 13ZM29.3333 13C29.3333 13.368 29.632 13.6667 30 13.6667C30.368 13.6667 30.6667 13.3681 30.6667 13.0001C30.6667 12.6321 30.368 12.3334 30 12.3334C29.632 12.3334 29.3333 12.632 29.3333 13Z" fill="#003764"/>
        <path fill-rule="evenodd" clip-rule="evenodd" d="M28 19C28 17.8973 28.8973 17 30 17C31.1027 17 32 17.8974 32 19C32 20.1027 31.1027 21 30 21C28.8973 21 28 20.1027 28 19ZM29.3333 19C29.3333 19.368 29.632 19.6667 30 19.6667C30.368 19.6667 30.6667 19.3681 30.6667 19.0001C30.6667 18.6321 30.368 18.3334 30 18.3334C29.632 18.3334 29.3333 18.632 29.3333 19Z" fill="#003764"/>
        <path d="M19 6H7.00003C6.44803 6 6 6.44803 6 7.00003C6 7.55203 6.44803 8.00006 7.00003 8.00006H19C19.552 8.00006 20.0001 7.55203 20.0001 7.00003C20.0001 6.44803 19.552 6 19 6Z" fill="#C32032"/>
        <path d="M19 12H7.00003C6.44803 12 6 12.448 6 13C6 13.552 6.44803 14.0001 7.00003 14.0001H19C19.552 14.0001 20.0001 13.552 20.0001 13C20.0001 12.448 19.552 12 19 12Z" fill="#C32032"/>
        <path d="M19 18H7.00003C6.44803 18 6 18.448 6 19C6 19.552 6.44803 20.0001 7.00003 20.0001H19C19.552 20.0001 20.0001 19.552 20.0001 19C20.0001 18.448 19.552 18 19 18Z" fill="#C32032"/>
    </symbol>

    <symbol id="icon6" viewBox="0 0 48 26">
        <path fill-rule="evenodd" clip-rule="evenodd" d="M3.99048 19.9833C3.99048 16.6833 6.67605 13.9977 9.97609 13.9977C13.2761 13.9977 15.9617 16.6833 15.9617 19.9833C15.9617 23.2833 13.2761 25.9689 9.97609 25.9689C6.67605 25.9689 3.99048 23.2833 3.99048 19.9833ZM5.98565 19.9833C5.98565 22.1839 7.77535 23.9736 9.97609 23.9736C12.1767 23.9736 13.9665 22.184 13.9665 19.9833C13.9665 17.7826 12.1768 15.9929 9.97609 15.9929C7.77535 15.9929 5.98565 17.7826 5.98565 19.9833Z" fill="#003764"/>
        <path fill-rule="evenodd" clip-rule="evenodd" d="M31.9233 19.9833C31.9233 16.6833 34.6089 13.9977 37.909 13.9977C41.2091 13.9977 43.8946 16.6833 43.8946 19.9833C43.8946 23.2833 41.209 25.9689 37.909 25.9689C34.6089 25.9689 31.9233 23.2833 31.9233 19.9833ZM33.9185 19.9832C33.9185 22.1839 35.7082 23.9736 37.909 23.9736C40.1097 23.9736 41.8994 22.184 41.8994 19.9833C41.8994 17.7826 40.1097 15.9929 37.909 15.9929C35.7083 15.9929 33.9185 17.7825 33.9185 19.9832Z" fill="#003764"/>
        <path d="M42.8969 8.00995H39.3893C38.0565 8.00995 36.8036 7.49116 35.8619 6.54946L31.3885 2.07624C30.0697 0.757444 28.316 0.0311279 26.4504 0.0311279H14.964C13.314 0.0311279 11.9712 1.37387 11.9712 3.02393V8.01191H0.997633C0.446957 8.01201 0 8.45887 0 9.00955V18.9856C0 19.0953 0.0179568 19.2051 0.0538705 19.3108C0.0917482 19.4185 1.01755 21.9784 4.98798 21.9784C5.53865 21.9784 5.98561 21.5314 5.98561 20.9808C5.98561 20.4301 5.53865 19.9831 4.98798 19.9831C2.90499 19.9831 2.18269 19.0753 1.99517 18.764V10.0072H12.9688C13.5194 10.0072 13.9664 9.56022 13.9664 9.00955V3.02393C13.9664 2.47326 14.4134 2.0263 14.964 2.0263H26.4504C27.7832 2.0263 29.0362 2.54508 29.98 3.48875L34.4532 7.96197C35.772 9.28077 37.5258 10.0071 39.3913 10.0071H42.8969C44.547 10.0071 45.8897 11.3498 45.8897 12.9999V16.9903C45.8897 19.1971 44.3435 19.9831 42.8969 19.9831C42.3462 19.9831 41.8993 20.4301 41.8993 20.9808C41.8993 21.5314 42.3462 21.9784 42.8969 21.9784C45.8338 21.9784 47.8849 19.9273 47.8849 16.9884V12.9979C47.8849 10.2486 45.6463 8.00995 42.8969 8.00995Z" fill="#003764"/>
        <path d="M32.9208 19.9833H14.9639C14.4133 19.9833 13.9663 20.4302 13.9663 20.9809C13.9663 21.5316 14.4133 21.9785 14.9639 21.9785H32.9208C33.4715 21.9785 33.9184 21.5316 33.9184 20.9809C33.9184 20.4301 33.4715 19.9833 32.9208 19.9833Z" fill="#003764"/>
        <path d="M24.9401 12.0023H22.9449C22.3942 12.0023 21.9473 12.4493 21.9473 13C21.9473 13.5506 22.3942 13.9976 22.9449 13.9976H24.9401C25.4907 13.9976 25.9377 13.5506 25.9377 13C25.9377 12.4493 25.4907 12.0023 24.9401 12.0023Z" fill="#C32032"/>
        <path d="M30.9258 8.01205H23.9425V5.01924C23.9425 4.46856 23.4956 4.02161 22.9449 4.02161C22.3942 4.02161 21.9473 4.46856 21.9473 5.01924V9.00968C21.9473 9.56035 22.3942 10.0073 22.9449 10.0073H30.9257C31.4764 10.0073 31.9233 9.56035 31.9233 9.00968C31.9233 8.459 31.4765 8.01205 30.9258 8.01205Z" fill="#C32032"/>
    </symbol>

</svg>