<svg xmlns="http://www.w3.org/2000/svg" display="none">
    <symbol id="dots" viewBox="0 0 2 14">
        <circle cx="1" cy="1" r="1"/>
        <circle cx="1" cy="7" r="1"/>
        <circle cx="1" cy="13" r="1"/>
    </symbol>

    <symbol id="icon-arrow" viewBox="0 0 17 17">
        <path d="M16.1953 13.7856L15.0925 13.7845C14.8769 13.7844 14.6754 13.7007 14.5217 13.5469C14.3608 13.386 14.263 13.1609 14.263 12.955L14.2338 5.84247L14.2289 4.65307L2.1426 16.7433C1.81539 17.0706 1.34526 17.0857 1.04392 16.7842L0.262866 16.0029C-0.0670879 15.6729 -0.0883883 15.1087 0.210106 14.8101L12.3443 2.67197L4.00284 2.69298C3.78225 2.69273 3.59592 2.61763 3.44651 2.46817C3.295 2.31661 3.21549 2.12232 3.21533 1.90361L3.21725 0.804625C3.21683 0.360261 3.57855 -0.000414515 4.0233 3.57552e-07L16.173 0.0143355C16.3878 0.0145768 16.5901 0.0990922 16.7486 0.257645C16.9026 0.411647 16.9865 0.613427 16.9868 0.828296L17 12.9807C17.0007 13.4248 16.6394 13.7862 16.1953 13.7856Z"/>
    </symbol>

    <symbol id="arrow-right" viewBox="0 0 12 10">
        <path d="M6.54966 9.80757L6.15649 9.41361C6.03288 9.28992 5.96449 9.12457 5.96449 8.94857C5.96449 8.77237 6.03288 8.59206 6.15649 8.46837L8.68273 5.92129H0.656683C0.294732 5.92129 0 5.6565 0 5.29383V4.73638C0 4.37381 0.294732 4.04205 0.656683 4.04205H8.71132L6.15649 1.50005C6.03288 1.37616 5.96449 1.2203 5.96449 1.0441C5.96449 0.868095 6.03288 0.707344 6.15649 0.583554L6.54966 0.191748C6.80556 -0.064632 7.22185 -0.0635564 7.47776 0.192824L11.8084 4.53369C11.9317 4.65728 12 4.82312 12 5.00059V5.00244C12 5.17855 11.9317 5.34399 11.8084 5.46759L7.47785 9.80757C7.22205 10.0641 6.80556 10.0641 6.54966 9.80757Z"/>
    </symbol>


</svg>